<svg width="1221" height="371" viewBox="0 0 1221 371" fill="none" xmlns="http://www.w3.org/2000/svg">
<path d="M143.06 111.687C143.06 112.991 142.83 113.643 142.408 113.643C137.04 113.528 131.864 115.599 127.991 119.32C124.003 123.117 120.169 129.407 116.488 138.267L76.0353 234.42C75.6135 235.494 74.4249 236.031 72.4693 236.031C71.089 236.185 69.7086 235.571 68.9034 234.42L22.9678 136.656C18.635 127.144 14.9923 120.969 11.9632 118.054C9.04909 115.177 5.06135 113.605 0.958589 113.682C0.306748 113.682 0 113.03 0 111.726C0 110.421 0.306748 109.769 0.958589 109.769C5.06135 109.769 8.2822 109.885 10.6595 110.076L24.5782 110.383L46.5874 110.076C49.8083 109.846 54.2561 109.769 59.8543 109.769C60.5061 109.769 60.8129 110.421 60.8129 111.726C60.8129 113.03 60.5061 113.682 59.8543 113.682C47.1242 113.682 40.7592 116.175 40.7592 121.122C40.7592 122.925 41.2193 124.689 42.0629 126.3L80.5598 207.227L109.701 137.001C111.005 133.894 111.771 130.634 111.963 127.297C111.963 118.246 103.643 113.72 87.0399 113.72C86.6181 113.72 86.388 113.068 86.388 111.764C86.388 110.46 86.5798 109.808 87.0399 109.808C92.8681 109.808 97.2776 109.923 100.307 110.115L119.709 110.421L132.017 110.115C134.164 109.885 137.615 109.808 142.37 109.808C142.791 109.808 143.021 110.46 143.021 111.764L143.06 111.687Z" fill="#3F3926"/>
<path d="M157.937 232.733C157.937 231.429 158.244 230.777 158.896 230.777C166.871 230.777 172.163 229.319 174.77 226.404C177.377 223.489 178.643 217.506 178.643 208.455V148.239C178.643 140.683 177.876 135.198 176.38 131.746C175.115 128.448 171.817 126.338 168.29 126.569C164.609 126.569 159.893 128.064 154.064 131.094H153.758C152.876 131.094 152.262 130.557 151.802 129.483C151.38 128.41 151.572 127.642 152.454 127.221L195.475 107.161L196.779 106.855C197.584 106.931 198.313 107.276 198.888 107.813C199.54 108.274 199.962 108.964 200.038 109.769C200.038 111.265 199.923 115.599 199.732 122.733C199.502 129.867 199.387 138.267 199.425 147.97V208.493C199.425 214.745 199.923 219.462 200.882 222.569C201.649 225.484 203.758 227.862 206.557 229.051C209.356 230.24 213.574 230.815 219.172 230.815C219.824 230.815 220.13 231.467 220.13 232.771C220.13 234.075 219.824 234.727 219.172 234.727C213.765 234.727 209.586 234.612 206.557 234.42L189.072 234.114L170.936 234.42C167.906 234.65 163.919 234.727 158.972 234.727C158.321 234.727 158.014 234.075 158.014 232.771L157.937 232.733ZM175.575 66.0458C172.891 63.4377 171.511 59.7941 171.549 55.0381C171.357 51.1644 172.853 47.4057 175.575 44.6825C178.259 42.0745 181.979 40.8088 186.733 40.8088C191.488 40.8088 194.824 42.1128 197.393 44.6825C200.038 47.444 201.457 51.2027 201.265 55.0381C201.265 59.7941 199.962 63.4377 197.393 66.0458C194.824 68.6539 191.258 69.9195 186.733 69.9195C181.979 69.9195 178.259 68.6155 175.575 66.0458Z" fill="#3F3926"/>
<path d="M357.592 112.339C365.797 117.095 372.431 124.114 376.687 132.552C381.442 141.527 383.819 152.458 383.819 165.421C383.819 180.955 380.483 194.302 373.773 205.386C367.523 216.087 358.397 224.793 347.393 230.47C336.771 236.031 324.923 238.908 312.922 238.869C296.971 239.1 281.403 234.075 268.597 224.64L243.021 236.3H242.37C241.641 236.376 240.913 235.878 240.759 235.149C240.529 234.382 240.798 233.577 241.411 233.04C247.891 228.744 252.531 224.372 255.33 219.922C258.129 215.512 259.548 209.298 259.548 201.321V41.7293C259.548 33.9434 258.857 28.4204 257.439 25.0452C256.02 21.7084 253.413 20.0208 249.502 20.0208C245.629 20.0208 240.759 21.4399 234.931 24.2398H234.624C233.742 24.2398 233.129 23.6645 232.669 22.4755C232.247 21.2865 232.439 20.5962 233.321 20.366L275.077 0.306833L276.687 0C277.492 0.0767082 278.221 0.421895 278.796 0.958853C279.448 1.4191 279.87 2.10948 279.946 2.91491V132.398C287.078 124.919 295.13 118.399 303.911 112.991C320.437 103.288 340.874 103.057 357.63 112.339H357.592ZM350.46 218.197C357.132 208.493 360.506 194.685 360.506 176.774C360.506 157.559 356.787 142.907 349.348 132.744C341.909 122.618 332.132 117.517 320.054 117.517C307.094 117.517 293.75 124.421 279.908 138.228V190.351C279.908 200.055 282.17 208.109 286.695 214.476C290.874 220.536 296.626 225.369 303.374 228.399C309.317 231.16 315.759 232.656 322.316 232.771C334.394 232.771 343.788 227.9 350.46 218.197Z" fill="#3F3926"/>
<path d="M410.736 232.733C410.736 231.429 411.043 230.777 411.695 230.777C419.67 230.777 424.962 229.319 427.569 226.404C430.176 223.489 431.442 217.506 431.442 208.455V148.239C431.442 140.683 430.675 135.198 429.179 131.746C427.914 128.448 424.617 126.338 421.089 126.569C417.408 126.569 412.692 128.064 406.863 131.094H406.557C405.675 131.094 405.061 130.557 404.601 129.483C404.179 128.41 404.371 127.642 405.253 127.221L448.275 107.161L449.578 106.855C450.383 106.931 451.112 107.276 451.687 107.813C452.339 108.274 452.761 108.964 452.837 109.769C452.837 111.265 452.722 115.599 452.531 122.733C452.301 129.867 452.186 138.267 452.224 147.97V208.493C452.224 214.745 452.722 219.462 453.681 222.569C454.448 225.484 456.557 227.862 459.356 229.051C462.155 230.24 466.373 230.815 471.971 230.815C472.623 230.815 472.929 231.467 472.929 232.771C472.929 234.075 472.623 234.727 471.971 234.727C466.564 234.727 462.385 234.612 459.356 234.42L441.871 234.114L423.735 234.42C420.706 234.65 416.718 234.727 411.771 234.727C411.12 234.727 410.813 234.075 410.813 232.771L410.736 232.733ZM428.374 66.0458C425.69 63.4377 424.31 59.7941 424.348 55.0381C424.156 51.1644 425.652 47.4057 428.374 44.6825C431.058 42.0745 434.778 40.8088 439.532 40.8088C444.287 40.8088 447.623 42.1128 450.192 44.6825C452.837 47.444 454.256 51.2027 454.064 55.0381C454.064 59.7941 452.761 63.4377 450.192 66.0458C447.623 68.6539 444.057 69.9195 439.532 69.9195C434.778 69.9195 431.058 68.6155 428.374 66.0458Z" fill="#3F3926"/>
<path d="M524.502 229.664C514.916 223.566 507.209 214.936 502.186 204.734C496.856 194.149 494.133 182.45 494.248 170.599C494.248 156.561 497.699 144.633 504.601 134.815C511.235 125.226 520.36 117.594 530.982 112.799C541.258 108.044 552.492 105.551 563.842 105.512C576.572 105.512 587.73 108.657 597.354 114.909C606.825 121.046 614.494 129.599 619.517 139.686C624.655 149.773 627.301 160.896 627.301 172.21C627.301 185.596 624.156 197.294 617.906 207.342C611.771 217.276 603.029 225.33 592.676 230.662C581.979 236.185 570.092 239.023 558.052 238.908C545.322 238.908 534.164 235.839 524.578 229.664H524.502ZM593.443 220.114C599.578 211.715 602.684 198.866 602.684 181.607C602.684 168.029 600.537 155.909 596.204 145.362C591.871 134.776 585.966 126.607 578.413 120.777C571.242 115.062 562.347 111.994 553.183 112.032C542.178 112.032 533.666 116.136 527.607 124.344C521.549 132.552 518.558 144.518 518.558 160.282C518.405 172.824 520.552 185.25 524.885 197.025C529.103 208.148 534.854 216.893 542.216 223.259C549.156 229.473 558.167 232.886 567.446 232.809C578.643 232.809 587.347 228.59 593.482 220.191L593.443 220.114Z" fill="#3F3926"/>
<path d="M651.572 233.73C648.888 230.93 647.508 227.133 647.546 222.415C647.354 218.542 648.85 214.783 651.572 212.06C654.256 209.452 657.975 208.186 662.73 208.186C667.485 208.186 671.127 209.413 673.735 211.906C676.304 214.399 677.607 217.89 677.607 222.415C677.607 227.402 676.304 231.199 673.735 233.922C671.127 236.606 667.485 237.949 662.73 237.949C657.975 237.949 654.256 236.53 651.572 233.73Z" fill="#3F3926"/>
<path d="M721.434 233.73C719.287 231.122 718.213 227.133 718.213 221.764C718.367 216.432 719.018 211.101 720.169 205.885L751.227 37.2419C751.802 34.5954 752.147 31.8723 752.186 29.1491C752.186 23.5494 750.038 20.7496 745.706 20.7496C742.255 20.7496 737.308 22.3605 730.828 25.6206H730.521C729.486 25.6206 728.566 24.8918 728.413 23.8563C728.106 22.6673 728.336 21.9769 729.218 21.7468L773.888 0.0767212H774.54C775.383 0.0767212 776.227 0.421908 776.802 1.03557C777.454 1.68759 777.646 2.22455 777.454 2.64645L740.222 205.923C739.609 208.685 739.302 211.523 739.264 214.323C739.264 220.575 741.219 223.72 745.092 223.72C747.239 223.72 749.923 222.531 753.182 220.153C757.4 216.969 761.388 213.479 765.146 209.797C765.491 209.413 765.951 209.183 766.449 209.145C767.14 209.183 767.791 209.644 768.06 210.296C768.482 210.986 768.367 211.868 767.753 212.405C760.429 221.035 753.873 227.402 748.159 231.505C742.446 235.609 736.771 237.642 731.173 237.642C726.84 237.642 723.62 236.338 721.472 233.768L721.434 233.73Z" fill="#3F3926"/>
<path d="M912.308 209.452C913.037 209.49 913.65 209.95 913.919 210.602C914.341 211.369 914.341 211.945 913.919 212.367C906.787 220.766 900.345 227.095 894.517 231.314C888.689 235.533 883.091 237.642 877.684 237.642C873.351 237.642 870.169 236.338 868.137 233.768C866.066 231.16 865.069 227.095 865.069 221.457C865.222 216.24 865.798 211.063 866.679 205.923L871.856 175.163C862.577 194.801 851.917 210.334 839.801 221.763C827.722 233.193 815.951 238.908 804.525 238.908C798.045 238.908 793.021 236.913 789.494 232.924C785.928 228.936 784.164 222.837 784.164 214.63C784.164 212.674 784.394 209.567 784.816 205.233C786.963 190.351 792.753 175.087 802.147 159.438C810.775 144.672 822.009 131.555 835.314 120.739C848.045 110.613 860.008 105.512 871.242 105.512C880.291 105.512 887.653 108.427 893.252 114.257C897.009 111.265 899.885 107.392 901.649 102.942C901.994 102.559 902.454 102.329 902.952 102.29C903.643 102.29 904.295 102.482 904.908 102.789C905.56 103.096 905.752 103.403 905.56 103.594L886.771 205.885C886.158 208.761 885.851 211.676 885.813 214.63C885.813 220.69 887.653 223.681 891.296 223.681C895.821 223.681 902.531 219.04 911.35 209.759C911.618 209.529 911.963 209.413 912.308 209.452ZM842.255 209.107C850.92 200.784 858.244 191.195 863.957 180.609C869.862 170.331 874.195 159.17 876.725 147.587C877.339 144.71 877.684 141.795 877.684 138.842C877.684 132.59 876.074 127.604 872.814 123.96C869.594 120.278 864.954 118.476 858.896 118.476C851.572 118.476 844.21 121.429 836.887 127.374C829.563 133.319 823.198 141.45 817.791 151.806C812.193 162.775 808.474 174.588 806.787 186.746C805.905 193.65 805.483 198.176 805.483 200.324C805.483 213.709 810.008 220.383 819.095 220.383C826.419 220.383 834.126 216.624 842.216 209.068L842.255 209.107Z" fill="#3F3926"/>
<path d="M1064.07 209.107C1065.26 209.298 1066.1 210.411 1065.95 211.6C1065.95 211.868 1065.84 212.098 1065.72 212.328C1058.4 220.958 1051.8 227.325 1045.97 231.429C1040.15 235.533 1034.43 237.565 1028.83 237.565C1024.5 237.565 1021.4 236.338 1019.44 233.845C1017.48 231.352 1016.53 227.325 1016.53 221.725C1016.68 216.394 1017.22 211.101 1018.14 205.847L1027.53 154.375C1028.72 148.852 1029.37 143.214 1029.49 137.538C1029.49 125.878 1025.27 120.048 1016.87 120.048C1009.97 120.048 1002.84 124.459 995.514 133.319C988.19 142.179 981.288 155.027 974.808 171.826C968.328 188.664 963.037 208.608 958.934 231.697C958.359 233.577 956.902 235.072 955.061 235.724C952.262 236.798 949.31 237.297 946.319 237.182C940.491 237.182 937.577 236.415 937.577 234.919L938.881 228.437C940.836 219.155 942.025 213.211 942.446 210.641L955.713 138.458C956.288 135.812 956.634 133.089 956.672 130.366C956.672 123.692 954.64 120.317 950.537 120.317C945.36 120.317 938.229 125.073 929.179 134.546C928.911 134.776 928.566 134.891 928.221 134.853C927.492 134.853 926.879 134.393 926.611 133.702C926.189 132.935 926.189 132.36 926.611 131.938C933.934 123.308 940.721 116.942 947.009 112.838C953.259 108.734 959.318 106.701 965.146 106.701C969.44 106.701 972.584 107.928 974.54 110.421C976.495 112.915 977.454 116.827 977.454 122.235C977.262 127.106 976.726 131.976 975.844 136.809L969.364 172.402C977.147 151.269 986.196 134.815 996.549 123.04C1006.9 111.265 1017.79 105.397 1029.22 105.397C1036.35 105.397 1041.68 107.43 1045.25 111.534C1048.81 115.638 1050.58 121.889 1050.58 130.327C1050.46 136.311 1049.81 142.255 1048.62 148.124L1037.96 205.731C1037.39 208.378 1037.04 211.101 1037 213.824C1037 220.306 1039.03 223.528 1043.14 223.528C1045.28 223.528 1047.97 222.339 1051.23 219.961C1055.44 216.739 1059.43 213.287 1063.19 209.605C1063.61 209.183 1063.96 208.953 1064.15 208.953L1064.07 209.107Z" fill="#3F3926"/>
<path d="M1183.17 205.885C1182.55 208.646 1182.25 211.485 1182.21 214.284C1182.21 220.536 1184.16 223.681 1188.04 223.681C1190.18 223.681 1192.87 222.492 1196.13 220.114C1200.35 216.931 1204.33 213.441 1208.09 209.759C1208.44 209.375 1208.9 209.145 1209.39 209.107C1210.12 209.145 1210.74 209.605 1211 210.257C1211.46 210.948 1211.31 211.83 1210.7 212.367C1203.14 220.996 1196.55 227.363 1190.95 231.467C1185.35 235.571 1179.72 237.604 1174.12 237.604C1169.79 237.604 1166.6 236.376 1164.57 233.883C1162.5 231.39 1161.5 227.478 1161.5 222.07C1161.62 216.624 1162.27 211.216 1163.46 205.885L1168.98 177.081C1159.47 196.296 1149.35 211.408 1138.57 222.415C1127.8 233.423 1116.79 238.908 1105.56 238.908C1098.31 239.1 1091.3 236.376 1086.16 231.314C1080.98 226.251 1078.37 218.312 1078.37 207.534C1078.37 202.97 1078.8 198.406 1079.68 193.957C1085.7 162.967 1103.72 135.62 1129.83 117.901C1142.33 109.693 1154.64 105.589 1166.72 105.589C1171.89 105.435 1177.03 106.663 1181.6 109.156L1194.86 37.2802C1195.32 34.8255 1195.55 32.3325 1195.51 29.8395C1195.51 23.8179 1193.25 20.7879 1188.73 20.7879C1185.51 20.7879 1180.41 22.3988 1173.5 25.6589H1173.2C1172.32 25.6589 1171.74 25.0836 1171.43 23.8946C1171.13 22.7056 1171.4 22.0153 1172.24 21.7851L1216.91 0.115051H1217.56C1218.41 0.115051 1219.25 0.460238 1219.82 1.0739C1220.48 1.72592 1220.67 2.26288 1220.48 2.68478L1183.24 205.962L1183.17 205.885ZM1144.98 206.038C1154.06 195.644 1161.35 183.831 1166.64 171.059C1172.24 157.789 1175.04 147.356 1175.04 139.839C1175.04 132.935 1173.08 127.642 1169.21 123.96C1165.34 120.278 1160.16 118.476 1153.68 118.476C1140.53 118.476 1129.18 123.692 1119.71 134.163C1110.2 144.633 1103.83 159.668 1100.61 179.305C1099.77 184.215 1099.31 189.201 1099.31 194.187C1099.31 203.047 1100.92 209.72 1104.18 214.246C1107.25 218.695 1112.39 221.265 1117.75 221.035C1127.03 221.035 1136.08 216.01 1144.94 206L1144.98 206.038Z" fill="#3F3926"/>
<path d="M138.919 313.775H149.732C159.663 313.775 164.417 319.183 164.417 326.278C164.417 334.141 158.742 338.82 149.271 338.82H148.735L166.219 357.384H160.775L143.597 338.82H142.945V357.384H138.957V313.775H138.919ZM148.735 335.253C157.17 335.253 160.276 331.61 160.276 326.278C160.276 320.947 156.595 317.61 149.31 317.61H142.906V335.292H148.696L148.735 335.253Z" fill="#3F3926"/>
<path d="M170.629 341.774C170.629 331.495 177.684 325.281 185.544 325.281C192.83 325.281 198.735 330.689 198.735 341.006C198.735 341.812 198.696 342.464 198.62 343.116H174.617C175.268 349.981 179.793 354.277 186.158 354.277C189.801 354.277 193.597 352.935 197.009 349.828V354.277C193.788 356.808 190.069 358.036 185.966 358.036C176.649 358.036 170.59 351.592 170.59 341.774H170.629ZM194.862 339.664C194.67 332.262 190.184 328.963 185.468 328.963C180.138 328.963 175.383 333.029 174.655 339.664H194.824H194.862Z" fill="#3F3926"/>
<path d="M204.985 341.774C204.985 331.495 212.04 325.281 219.9 325.281C227.186 325.281 233.091 330.689 233.091 341.006C233.091 341.812 233.014 342.464 232.975 343.116H208.972C209.624 349.981 214.149 354.277 220.514 354.277C224.156 354.277 227.952 352.935 231.365 349.828V354.277C228.144 356.808 224.425 358.036 220.322 358.036C211.005 358.036 204.946 351.592 204.946 341.774H204.985ZM229.218 339.664C229.026 332.262 224.54 328.963 219.824 328.963C214.494 328.963 209.739 333.029 209.011 339.664H229.179H229.218Z" fill="#3F3926"/>
<path d="M266.181 336.634V357.422H262.193V338.36C262.193 332.185 259.394 329.27 254.103 329.27C249.233 329.27 245.437 332.914 245.437 338.015V357.46H241.449V326.01H244.517L245.054 330.881H245.169C246.933 327.966 250.383 325.358 254.908 325.358C261.733 325.358 266.219 329.807 266.219 336.672L266.181 336.634Z" fill="#3F3926"/>
<path d="M289.839 354.239C292.485 354.239 295.782 353.663 298.39 351.592V355.926C296.166 357.23 293.29 358.036 289.839 358.036C280.867 358.036 274.233 350.94 274.233 341.62C274.233 332.3 280.867 325.32 289.839 325.32C293.136 325.32 295.936 325.895 298.39 327.544V331.878C295.744 329.884 293.175 329.117 289.762 329.117C283.896 329.117 278.221 333.796 278.221 341.62C278.221 349.444 283.896 354.239 289.839 354.239Z" fill="#3F3926"/>
<path d="M306.442 345.532V325.933H310.429V345.724C310.429 351.017 313.612 354.239 318.712 354.239C323.811 354.239 327.262 351.017 327.262 345.686V325.972H331.25V345.571C331.25 352.973 326.457 358.074 318.712 358.074C310.966 358.074 306.442 352.973 306.442 345.571V345.532Z" fill="#3F3926"/>
<path d="M339.379 341.774C339.379 331.495 346.434 325.281 354.294 325.281C361.58 325.281 367.485 330.689 367.485 341.006C367.485 341.812 367.446 342.464 367.37 343.116H343.367C344.018 349.981 348.543 354.277 354.908 354.277C358.551 354.277 362.347 352.935 365.759 349.828V354.277C362.538 356.808 358.819 358.036 354.716 358.036C345.399 358.036 339.341 351.592 339.341 341.774H339.379ZM363.612 339.664C363.42 332.262 358.934 328.963 354.218 328.963C348.888 328.963 344.133 333.029 343.405 339.664H363.574H363.612Z" fill="#3F3926"/>
<path d="M400.575 336.634V357.422H396.587V338.36C396.587 332.185 393.788 329.27 388.497 329.27C383.627 329.27 379.831 332.914 379.831 338.015V357.46H375.844V326.01H378.911L379.448 330.881H379.563C381.327 327.966 384.778 325.358 389.302 325.358C396.127 325.358 400.613 329.807 400.613 336.672L400.575 336.634Z" fill="#3F3926"/>
<path d="M415.529 325.933H424.732V329.5H415.529V346.644C415.529 351.937 418.52 354.085 422.699 354.085C423.581 354.085 424.502 353.97 425.498 353.778V357.345C425.153 357.422 423.811 357.652 422.163 357.652C415.951 357.652 411.541 353.893 411.541 346.798V329.5H406.787V325.933H411.656V318.531H415.529V325.933Z" fill="#3F3926"/>
<path d="M432.247 325.933H435.429L435.89 331.034H435.966C438.152 326.854 442.293 325.588 445.13 325.588C445.897 325.588 446.549 325.665 447.124 325.703V329.577C446.472 329.462 445.782 329.385 445.054 329.385C440.721 329.385 436.235 332.262 436.235 338.552V357.384H432.247V325.933Z" fill="#3F3926"/>
<path d="M450.115 341.658C450.115 331.571 457.055 325.281 464.494 325.281C468.942 325.281 473.466 327.467 475.997 332.108H476.074L476.61 325.933H479.831V357.384H476.61L476.074 351.209H475.997C473.466 355.849 468.942 358.036 464.494 358.036C457.055 358.036 450.115 351.707 450.115 341.658ZM464.992 354.239C471.051 354.239 475.92 349.137 475.92 341.62C475.92 334.103 471.051 329.117 464.992 329.117C458.934 329.117 454.064 334.103 454.064 341.658C454.064 349.214 458.857 354.2 464.992 354.2V354.239Z" fill="#3F3926"/>
<path d="M489.11 354.584C489.11 352.781 490.414 351.477 492.178 351.477C493.942 351.477 495.245 352.781 495.245 354.584C495.245 356.386 493.942 357.652 492.178 357.652C490.414 357.652 489.11 356.348 489.11 354.584Z" fill="#3F3926"/>
<path d="M522.201 313.775H533.014C542.945 313.775 547.699 319.183 547.699 326.278C547.699 334.141 542.025 338.82 532.554 338.82H532.017L549.502 357.384H544.057L526.879 338.82H526.227V357.384H522.239V313.775H522.201ZM532.017 335.253C540.452 335.253 543.558 331.61 543.558 326.278C543.558 320.947 539.877 317.61 532.592 317.61H526.189V335.292H532.017V335.253Z" fill="#3F3926"/>
<path d="M553.911 341.774C553.911 331.495 560.966 325.281 568.827 325.281C576.112 325.281 582.017 330.689 582.017 341.006C582.017 341.812 581.94 342.464 581.902 343.116H557.899C558.551 349.981 563.075 354.277 569.44 354.277C573.083 354.277 576.879 352.935 580.291 349.828V354.277C577.071 356.808 573.351 358.036 569.248 358.036C559.931 358.036 553.873 351.592 553.873 341.774H553.911ZM578.144 339.664C577.952 332.262 573.466 328.963 568.75 328.963C563.42 328.963 558.666 333.029 557.937 339.664H578.106H578.144Z" fill="#3F3926"/>
<path d="M588.305 341.658C588.305 331.571 595.245 325.281 602.684 325.281C607.132 325.281 611.733 327.506 613.995 331.725V310.553H617.983V357.384H614.762L614.226 351.209C611.695 355.849 607.132 358.036 602.684 358.036C595.245 358.036 588.305 351.707 588.305 341.658ZM603.183 354.239C609.241 354.239 614.11 349.137 614.11 341.62C614.11 334.103 609.241 329.117 603.183 329.117C597.124 329.117 592.255 334.103 592.255 341.658C592.255 349.214 597.048 354.2 603.183 354.2V354.239Z" fill="#3F3926"/>
<path d="M630.598 312.318C632.247 312.318 633.359 313.43 633.359 314.964C633.359 316.498 632.247 317.649 630.598 317.649C628.949 317.649 627.914 316.536 627.914 314.964C627.914 313.391 629.026 312.318 630.598 312.318ZM628.604 325.933H632.592V357.384H628.604V325.933Z" fill="#3F3926"/>
<path d="M661.887 328.043V332.453C659.663 330.459 656.327 329.04 652.569 329.04C648.236 329.04 645.744 331.034 645.744 333.911C645.744 337.209 648.735 338.245 653.259 339.664C657.937 341.121 663.459 342.579 663.459 348.869C663.459 354.43 659.126 358.036 652.262 358.036C648.39 358.036 644.517 356.847 641.526 354.354V349.598C643.942 352.167 647.699 354.277 652.224 354.277C656.749 354.277 659.548 352.052 659.548 348.946C659.548 345.417 656.327 344.305 651.61 342.847C646.319 341.198 641.756 339.664 641.756 334.218C641.756 329.04 645.974 325.281 652.607 325.281C656.135 325.281 659.701 326.355 661.887 328.043Z" fill="#3F3926"/>
<path d="M669.632 341.774C669.632 331.495 676.687 325.281 684.548 325.281C691.833 325.281 697.738 330.689 697.738 341.006C697.738 341.812 697.699 342.464 697.623 343.116H673.62C674.272 349.981 678.796 354.277 685.161 354.277C688.804 354.277 692.6 352.935 696.012 349.828V354.277C692.791 356.808 689.072 358.036 684.969 358.036C675.652 358.036 669.594 351.592 669.594 341.774H669.632ZM693.865 339.664C693.673 332.262 689.187 328.963 684.471 328.963C679.141 328.963 674.387 333.029 673.658 339.664H693.827H693.865Z" fill="#3F3926"/>
<path d="M730.828 336.634V357.422H726.841V338.36C726.841 332.185 724.041 329.27 718.75 329.27C713.88 329.27 710.084 332.914 710.084 338.015V357.46H706.097V326.01H709.164L709.701 330.881H709.816C711.58 327.966 715.031 325.358 719.555 325.358C726.38 325.358 730.867 329.807 730.867 336.672L730.828 336.634ZM714.379 313.315C718.597 313.315 719.824 316.882 722.93 316.882C725.115 316.882 725.92 315.079 725.844 313.468H728.949C729.256 318.224 725.997 319.988 723.083 319.988C718.865 319.988 717.638 316.421 714.532 316.421C712.347 316.421 711.541 318.301 711.618 319.835H708.436C708.206 315.079 711.35 313.315 714.379 313.315Z" fill="#3F3926"/>
<path d="M738.88 341.658C738.88 331.571 745.821 325.281 753.259 325.281C757.707 325.281 762.232 327.467 764.762 332.108H764.839L765.376 325.933H768.597V357.384H765.376L764.839 351.209H764.762C762.232 355.849 757.707 358.036 753.259 358.036C745.821 358.036 738.88 351.707 738.88 341.658ZM753.758 354.239C759.816 354.239 764.686 349.137 764.686 341.62C764.686 334.103 759.816 329.117 753.758 329.117C747.699 329.117 742.83 334.103 742.83 341.658C742.83 349.214 747.661 354.2 753.758 354.2V354.239Z" fill="#3F3926"/>
<path d="M777.876 354.584C777.876 352.781 779.179 351.477 780.943 351.477C782.707 351.477 784.011 352.781 784.011 354.584C784.011 356.386 782.707 357.652 780.943 357.652C779.179 357.652 777.876 356.348 777.876 354.584Z" fill="#3F3926"/>
<path d="M810.966 313.775H821.779C831.71 313.775 836.465 319.183 836.465 326.278C836.465 334.141 830.79 338.82 821.319 338.82H820.782L838.267 357.384H832.822L815.644 338.82H814.992V357.384H811.005V313.775H810.966ZM820.782 335.253C829.218 335.253 832.324 331.61 832.324 326.278C832.324 320.947 828.643 317.61 821.357 317.61H814.954V335.292H820.782V335.253Z" fill="#3F3926"/>
<path d="M842.676 341.774C842.676 331.495 849.732 325.281 857.592 325.281C864.877 325.281 870.782 330.689 870.782 341.006C870.782 341.812 870.706 342.464 870.667 343.116H846.664C847.316 349.981 851.841 354.277 858.206 354.277C861.848 354.277 865.644 352.935 869.057 349.828V354.277C865.836 356.808 862.117 358.036 858.014 358.036C848.696 358.036 842.638 351.592 842.638 341.774H842.676ZM866.91 339.664C866.718 332.262 862.232 328.963 857.516 328.963C852.186 328.963 847.431 333.029 846.703 339.664H866.871H866.91Z" fill="#3F3926"/>
<path d="M902.914 331.686L903.451 325.933H906.634V355.351C906.634 365.438 899.425 370.386 891.948 370.386C887.73 370.386 883.512 368.851 880.253 366.397V361.718C883.551 364.786 887.538 366.474 891.948 366.474C897.584 366.474 902.646 362.485 902.646 356.195V350.748C900.192 354.737 895.821 356.962 891.373 356.962C883.934 356.962 876.994 350.633 876.994 341.16C876.994 331.686 883.934 325.358 891.373 325.358C895.821 325.358 900.422 327.429 902.914 331.686ZM891.91 353.165C897.968 353.165 902.837 347.987 902.837 340.891C902.837 333.796 897.968 329.155 891.91 329.155C885.851 329.155 880.982 334.218 880.982 341.198C880.982 348.179 885.775 353.165 891.91 353.165Z" fill="#3F3926"/>
<path d="M915.146 341.774C915.146 331.495 922.201 325.281 930.061 325.281C937.347 325.281 943.252 330.689 943.252 341.006C943.252 341.812 943.213 342.464 943.137 343.116H919.133C919.785 349.981 924.31 354.277 930.675 354.277C934.318 354.277 938.113 352.935 941.526 349.828V354.277C938.305 356.808 934.586 358.036 930.483 358.036C921.166 358.036 915.107 351.592 915.107 341.774H915.146ZM939.379 339.664C939.187 332.262 934.701 328.963 929.985 328.963C924.655 328.963 919.9 333.029 919.172 339.664H939.341H939.379Z" fill="#3F3926"/>
<path d="M976.342 336.634V357.422H972.354V338.36C972.354 332.185 969.555 329.27 964.264 329.27C959.394 329.27 955.598 332.914 955.598 338.015V357.46H951.61V326.01H954.678L955.215 330.881H955.33C957.093 327.966 960.544 325.358 965.069 325.358C971.894 325.358 976.38 329.807 976.38 336.672L976.342 336.634Z" fill="#3F3926"/>
<path d="M984.433 341.774C984.433 331.495 991.488 325.281 999.348 325.281C1006.63 325.281 1012.54 330.689 1012.54 341.006C1012.54 341.812 1012.46 342.464 1012.42 343.116H988.42C989.072 349.981 993.597 354.277 999.962 354.277C1003.6 354.277 1007.4 352.935 1010.81 349.828V354.277C1007.59 356.808 1003.87 358.036 999.77 358.036C990.452 358.036 984.394 351.592 984.394 341.774H984.433ZM1008.67 339.664C1008.47 332.262 1003.99 328.963 999.272 328.963C993.942 328.963 989.187 333.029 988.459 339.664H1008.63H1008.67Z" fill="#3F3926"/>
<path d="M1020.86 325.933H1024.04L1024.5 331.034H1024.58C1026.76 326.854 1030.9 325.588 1033.74 325.588C1034.51 325.588 1035.16 325.665 1035.74 325.703V329.577C1035.08 329.462 1034.39 329.385 1033.67 329.385C1029.33 329.385 1024.85 332.262 1024.85 338.552V357.384H1020.86V325.933Z" fill="#3F3926"/>
<path d="M1038.73 341.658C1038.73 331.571 1045.67 325.281 1053.11 325.281C1057.55 325.281 1062.08 327.467 1064.61 332.108H1064.69L1065.22 325.933H1068.44V357.384H1065.22L1064.69 351.209H1064.61C1062.08 355.849 1057.55 358.036 1053.11 358.036C1045.67 358.036 1038.73 351.707 1038.73 341.658ZM1053.6 354.239C1059.66 354.239 1064.53 349.137 1064.53 341.62C1064.53 334.103 1059.66 329.117 1053.6 329.117C1047.55 329.117 1042.68 334.103 1042.68 341.658C1042.68 349.214 1047.47 354.2 1053.6 354.2V354.239Z" fill="#3F3926"/>
<path d="M1077.72 354.584C1077.72 352.781 1079.03 351.477 1080.79 351.477C1082.55 351.477 1083.86 352.781 1083.86 354.584C1083.86 356.386 1082.55 357.652 1080.79 357.652C1079.03 357.652 1077.72 356.348 1077.72 354.584Z" fill="#3F3926"/>
</svg>
