<svg width="460" height="97" viewBox="0 0 460 97" fill="none" xmlns="http://www.w3.org/2000/svg">
<path d="M41.99 32.77C41.99 33.15 41.93 33.34 41.8 33.34C40.23 33.31 38.71 33.91 37.57 35C36.4 36.11 35.27 37.9599 34.2 40.5599L22.33 68.77C22.2 69.09 21.85 69.2399 21.28 69.2399C20.87 69.2899 20.47 69.1 20.24 68.77L6.75 40.08C5.48 37.29 4.41 35.47 3.52 34.62C2.66 33.78 1.5 33.31 0.290001 33.34C0.100001 33.34 0 33.15 0 32.77C0 32.39 0.100001 32.2 0.290001 32.2C1.49 32.2 2.44 32.23 3.14 32.29L7.22 32.38L13.68 32.29C14.63 32.23 15.93 32.2 17.57 32.2C17.76 32.2 17.86 32.39 17.86 32.77C17.86 33.15 17.76 33.34 17.57 33.34C13.83 33.34 11.97 34.07 11.97 35.52C11.97 36.05 12.11 36.57 12.35 37.04L23.65 60.79L32.2 40.18C32.58 39.27 32.8 38.31 32.87 37.33C32.87 34.67 30.43 33.34 25.55 33.34C25.42 33.34 25.36 33.15 25.36 32.77C25.36 32.39 25.42 32.2 25.55 32.2C27.26 32.2 28.56 32.23 29.44 32.29L35.14 32.38L38.75 32.29C39.38 32.23 40.4 32.2 41.79 32.2C41.92 32.2 41.98 32.39 41.98 32.77H41.99Z" fill="#3F3926"/>
<path d="M46.36 68.3C46.36 67.92 46.45 67.73 46.64 67.73C48.98 67.73 50.53 67.3 51.29 66.45C52.05 65.6 52.43 63.84 52.43 61.18V43.51C52.43 41.29 52.21 39.68 51.76 38.67C51.38 37.7 50.42 37.09 49.39 37.15C48.31 37.15 46.92 37.59 45.21 38.48H45.11C44.86 38.48 44.67 38.32 44.54 38.01C44.41 37.69 44.48 37.47 44.73 37.35L57.36 31.46L57.74 31.37C57.97 31.39 58.19 31.49 58.36 31.66C58.55 31.79 58.67 32 58.69 32.23C58.69 32.67 58.66 33.94 58.59 36.03C58.53 38.12 58.49 40.59 58.49 43.44V61.2C58.49 63.04 58.63 64.41 58.92 65.33C59.15 66.19 59.76 66.89 60.58 67.23C61.4 67.58 62.64 67.75 64.28 67.75C64.47 67.75 64.56 67.94 64.56 68.32C64.56 68.7 64.47 68.89 64.28 68.89C62.7 68.89 61.46 68.86 60.58 68.8L55.45 68.71L50.13 68.8C49.24 68.86 48.07 68.9 46.61 68.89C46.42 68.89 46.33 68.7 46.33 68.32L46.36 68.3ZM51.53 19.38C50.74 18.62 50.34 17.54 50.34 16.15C50.29 15.01 50.72 13.91 51.53 13.11C52.32 12.35 53.41 11.97 54.81 11.97C56.21 11.97 57.18 12.35 57.94 13.11C58.72 13.92 59.13 15.02 59.08 16.15C59.08 17.54 58.7 18.62 57.94 19.38C57.18 20.14 56.14 20.52 54.81 20.52C53.42 20.52 52.32 20.14 51.53 19.38Z" fill="#3F3926"/>
<path d="M104.97 32.96C107.37 34.35 109.32 36.42 110.57 38.9C111.96 41.53 112.66 44.74 112.66 48.54C112.66 53.1 111.68 57.01 109.71 60.27C107.88 63.41 105.19 65.96 101.97 67.63C98.85 69.26 95.38 70.11 91.85 70.1C87.17 70.16 82.6 68.7 78.84 65.92L71.34 69.34H71.15C70.93 69.36 70.73 69.22 70.68 69.01C70.62 68.78 70.69 68.54 70.87 68.39C72.77 67.12 74.13 65.84 74.95 64.54C75.77 63.24 76.18 61.42 76.19 59.08V12.25C76.19 9.97001 75.98 8.34001 75.57 7.36001C75.16 6.38001 74.38 5.89001 73.24 5.89001C72.1 5.89001 70.67 6.30001 68.97 7.13001H68.87C68.62 7.13001 68.43 6.96001 68.3 6.61001C68.17 6.26001 68.24 6.06001 68.49 5.99001L80.74 0.10001L81.21 0.0100098C81.44 0.0300098 81.66 0.130011 81.83 0.300011C82.02 0.430011 82.14 0.64001 82.16 0.87001V38.87C84.25 36.68 86.61 34.76 89.19 33.17C94.04 30.33 100.04 30.25 104.96 32.98L104.97 32.96ZM102.88 64.03C104.84 61.18 105.82 57.13 105.83 51.87C105.83 46.23 104.74 41.93 102.55 38.95C100.36 35.97 97.5 34.49 93.95 34.49C90.15 34.49 86.22 36.52 82.17 40.57V55.86C82.17 58.71 82.84 61.07 84.17 62.94C85.4 64.72 87.09 66.14 89.06 67.02C90.8 67.83 92.7 68.27 94.62 68.3C98.17 68.3 100.92 66.88 102.88 64.03Z" fill="#3F3926"/>
<path d="M120.57 68.3C120.57 67.92 120.66 67.73 120.85 67.73C123.19 67.73 124.74 67.3 125.5 66.45C126.26 65.6 126.64 63.84 126.64 61.18V43.51C126.64 41.29 126.42 39.68 125.97 38.67C125.59 37.7 124.63 37.09 123.6 37.15C122.52 37.15 121.13 37.59 119.42 38.48H119.32C119.07 38.48 118.88 38.32 118.75 38.01C118.62 37.69 118.69 37.47 118.94 37.35L131.57 31.46L131.95 31.37C132.18 31.39 132.4 31.49 132.57 31.66C132.76 31.79 132.88 32 132.9 32.23C132.9 32.67 132.87 33.94 132.8 36.03C132.74 38.12 132.7 40.59 132.7 43.44V61.2C132.7 63.04 132.84 64.41 133.13 65.33C133.36 66.19 133.97 66.89 134.79 67.23C135.61 67.58 136.85 67.75 138.49 67.75C138.68 67.75 138.77 67.94 138.77 68.32C138.77 68.7 138.68 68.89 138.49 68.89C136.91 68.89 135.67 68.86 134.79 68.8L129.66 68.71L124.34 68.8C123.45 68.86 122.28 68.9 120.82 68.89C120.63 68.89 120.54 68.7 120.54 68.32L120.57 68.3ZM125.75 19.38C124.96 18.62 124.56 17.54 124.56 16.15C124.51 15.01 124.94 13.91 125.75 13.11C126.54 12.35 127.63 11.97 129.03 11.97C130.43 11.97 131.4 12.35 132.16 13.11C132.94 13.92 133.35 15.02 133.3 16.15C133.3 17.54 132.92 18.62 132.16 19.38C131.4 20.14 130.36 20.52 129.03 20.52C127.64 20.52 126.54 20.14 125.75 19.38Z" fill="#3F3926"/>
<path d="M153.96 67.4C151.15 65.6 148.88 63.08 147.4 60.09C145.84 56.98 145.04 53.55 145.07 50.07C145.07 45.95 146.08 42.46 148.11 39.57C150.06 36.75 152.73 34.52 155.85 33.11C158.87 31.71 162.16 30.98 165.49 30.97C169.23 30.97 172.5 31.89 175.32 33.72C178.1 35.52 180.35 38.03 181.83 40.99C183.34 43.95 184.12 47.22 184.11 50.54C184.11 54.47 183.19 57.9 181.35 60.85C179.55 63.76 176.99 66.13 173.94 67.69C170.8 69.31 167.31 70.15 163.78 70.11C160.04 70.11 156.77 69.21 153.95 67.4H153.96ZM174.19 64.6C175.99 62.13 176.9 58.36 176.9 53.3C176.9 49.31 176.27 45.76 175 42.66C173.73 39.56 171.99 37.15 169.78 35.44C167.67 33.77 165.06 32.86 162.37 32.87C159.14 32.87 156.64 34.07 154.87 36.48C153.1 38.89 152.21 42.4 152.21 47.02C152.17 50.7 152.79 54.35 154.06 57.8C155.3 61.06 156.99 63.63 159.14 65.49C161.17 67.31 163.82 68.31 166.55 68.29C169.84 68.29 172.39 67.06 174.2 64.59L174.19 64.6Z" fill="#3F3926"/>
<path d="M191.26 68.5901C190.47 67.7701 190.07 66.6601 190.07 65.2701C190.02 64.1301 190.45 63.0301 191.26 62.2301C192.05 61.4701 193.14 61.0901 194.54 61.0901C195.93 61.0901 197.01 61.4501 197.77 62.1801C198.53 62.9101 198.91 63.9401 198.91 65.2701C198.91 66.7301 198.53 67.8501 197.77 68.6401C197.01 69.4301 195.93 69.8301 194.54 69.8301C193.15 69.8301 192.05 69.4201 191.26 68.5901Z" fill="#3F3926"/>
<path d="M246.98 62.04C247.17 62.04 247.33 62.15 247.46 62.38C247.59 62.61 247.59 62.81 247.46 63C245.15 65.56 243.17 67.45 241.51 68.67C239.84 69.89 238.18 70.49 236.52 70.49C235.24 70.49 234.31 70.12 233.73 69.39C233.15 68.66 232.87 67.45 232.87 65.79C232.87 64.7 233.03 63.13 233.35 61.08L236.23 45.81C236.55 43.76 236.71 42.16 236.71 41.01C236.71 37.42 235.46 35.63 232.96 35.63C230.91 35.63 228.8 36.94 226.62 39.57C224.44 42.2 222.39 46 220.47 51C218.55 55.99 216.98 61.92 215.76 68.77C215.63 69.28 215.25 69.68 214.61 69.97C213.97 70.26 213.1 70.4 212.02 70.4C210.29 70.4 209.43 70.17 209.43 69.73C209.49 69.41 209.7 68.5 210.05 66.99C210.4 65.49 210.67 64 210.87 62.52L220.47 11.04C220.6 10.46 220.66 9.73 220.66 8.83C220.66 7.04 219.99 6.14 218.64 6.14C217.62 6.14 216.14 6.62 214.22 7.58H214.12C213.8 7.58 213.59 7.4 213.5 7.05C213.4 6.7 213.48 6.49 213.74 6.43L226.99 0H227.18C227.44 0 227.66 0.100001 227.85 0.290001C228.04 0.480001 228.11 0.64 228.04 0.77L219.01 50.9C221.25 44.75 223.89 39.95 226.93 36.49C229.97 33.03 233.19 31.3 236.58 31.3C238.69 31.3 240.28 31.91 241.33 33.12C242.39 34.34 242.91 36.19 242.91 38.69C242.91 40.16 242.72 41.92 242.33 43.97L239.26 61.07C239.07 62.03 238.97 62.89 238.97 63.66C238.97 65.45 239.51 66.35 240.6 66.35C241.3 66.35 242.14 66.01 243.1 65.34C244.06 64.67 245.24 63.63 246.65 62.22C246.78 62.09 246.87 62.03 246.94 62.03L246.98 62.04Z" fill="#3F3926"/>
<path d="M256.73 69.3902C256.12 68.6502 255.82 67.4902 255.82 65.8802C255.82 64.6002 256.01 63.0002 256.4 61.0802L260.34 41.1002C260.53 40.1402 260.63 39.3402 260.63 38.7002C260.63 36.7202 259.99 35.7202 258.71 35.7202C258 35.7202 257.11 36.0902 256.02 36.8202C254.93 37.5602 253.75 38.6002 252.47 39.9402C252.34 40.0702 252.21 40.1302 252.09 40.1302C251.9 40.1302 251.74 40.0202 251.61 39.7902C251.48 39.5702 251.51 39.3602 251.71 39.1702C253.95 36.5502 255.97 34.6402 257.76 33.4602C259.55 32.2802 261.28 31.6802 262.95 31.6802C264.23 31.6802 265.19 32.0302 265.83 32.7402C266.47 33.4502 266.79 34.6002 266.79 36.2002C266.79 37.4202 266.6 38.8902 266.21 40.6202L262.37 61.0802C262.18 62.1002 262.08 63.0002 262.08 63.7702C262.08 65.5002 262.62 66.3602 263.71 66.3602C265.18 66.3602 267.2 65.0202 269.76 62.3302C269.82 62.2702 269.92 62.2302 270.05 62.2302C270.31 62.2302 270.5 62.3402 270.63 62.5702C270.76 62.7902 270.73 62.9702 270.53 63.1002C268.42 65.6002 266.48 67.4502 264.72 68.6702C262.96 69.8902 261.25 70.4902 259.58 70.4902C258.3 70.4902 257.35 70.1202 256.75 69.3902H256.73ZM262.4 19.5402C261.6 18.7402 261.2 17.6402 261.2 16.2302C261.2 14.8202 261.62 13.8302 262.45 13.0602C263.28 12.2902 264.4 11.9102 265.81 11.9102C267.22 11.9102 268.31 12.2902 269.08 13.0602C269.85 13.8302 270.23 14.8802 270.23 16.2302C270.23 17.5802 269.85 18.7402 269.08 19.5402C268.31 20.3402 267.22 20.7402 265.81 20.7402C264.4 20.7402 263.2 20.3402 262.4 19.5402Z" fill="#3F3926"/>
<path d="M310.34 32.9399C310.34 33.8399 310.2 34.7599 309.91 35.7299C309.62 36.6899 309.35 37.1099 309.09 36.9799C307.1 35.8299 304.67 35.3199 301.79 35.4399C303.13 37.2299 303.81 39.5099 303.81 42.2599C303.81 43.5399 303.68 44.7899 303.43 46.0099C302.85 48.8299 301.73 51.3099 300.07 53.4499C298.4 55.5999 296.44 57.2599 294.16 58.4399C291.89 59.6299 289.57 60.2199 287.2 60.2199C286.62 60.2199 285.89 60.1599 284.99 60.0299C284.22 60.9899 283.84 62.0499 283.84 63.1999C283.84 64.6699 284.53 65.9499 285.91 67.0399C287.29 68.1299 289.42 69.3799 292.3 70.7899C294.73 72.0099 296.68 73.0899 298.16 74.0599C299.63 75.0199 300.9 76.1899 301.95 77.5699C303.01 78.9499 303.53 80.5599 303.53 82.4199C303.53 84.9799 302.58 87.3499 300.7 89.5299C298.81 91.7099 296.3 93.4299 293.16 94.7199C290.02 95.9999 286.63 96.6399 282.98 96.6399C278.43 96.6399 274.85 95.7099 272.22 93.8499C269.6 91.9899 268.28 89.7199 268.28 87.0299C268.28 84.3399 269.43 81.8099 271.74 79.6299C274.04 77.4499 277.41 75.1199 281.82 72.6199C279.52 71.0199 278.36 69.2899 278.36 67.4299C278.36 66.1499 278.79 64.8799 279.66 63.6399C280.52 62.3899 281.82 61.0599 283.55 59.6499C281.5 58.9499 279.93 57.6999 278.84 55.8999C277.75 54.1099 277.21 51.9599 277.21 49.4699C277.21 48.6999 277.34 47.5499 277.59 46.0099C278.42 41.9799 280.38 38.6299 283.45 35.9699C286.52 33.3099 290.01 31.9799 293.92 31.9799C296.54 31.9799 298.72 32.6899 300.45 34.0899C303.97 32.4899 307.11 31.6899 309.86 31.6899C310.18 31.6899 310.34 32.1099 310.34 32.9399ZM295.22 80.5299C293.46 79.0899 290.85 77.4699 287.39 75.6799C285.47 74.7799 283.96 73.9799 282.88 73.2799C280.38 74.8199 278.41 76.4299 276.97 78.1299C275.53 79.8299 274.81 81.8599 274.81 84.2299C274.81 87.0499 276.01 89.3499 278.41 91.1499C280.81 92.9399 283.9 93.8399 287.68 93.8399C290.95 93.8399 293.46 93.0999 295.22 91.6299C296.98 90.1599 297.86 88.3299 297.86 86.1599C297.86 83.8599 296.98 81.9799 295.22 80.5399V80.5299ZM297.47 44.7599C297.47 41.7499 296.99 39.1699 296.03 37.0299C295.07 34.8899 293.6 33.8099 291.61 33.8099C289.82 33.8099 288.18 34.7999 286.71 36.7899C285.24 38.7799 284.28 41.2399 283.83 44.1899C283.64 45.4099 283.54 46.6199 283.54 47.8399C283.54 50.7899 284.08 53.2699 285.17 55.2799C286.26 57.2999 287.76 58.3099 289.68 58.3099C291.41 58.3099 292.99 57.3799 294.43 55.5199C295.87 53.6599 296.81 51.1699 297.26 48.0299C297.39 47.3299 297.45 46.2399 297.45 44.7599H297.47Z" fill="#3F3926"/>
<path d="M352.05 62.1399C352.24 62.1399 352.4 62.2499 352.53 62.4799C352.66 62.7099 352.66 62.8799 352.53 63.0099C350.29 65.6399 348.27 67.5399 346.48 68.7199C344.69 69.8999 342.93 70.4999 341.2 70.4999C339.92 70.4999 338.97 70.1299 338.37 69.3999C337.76 68.6599 337.46 67.4999 337.46 65.8899C337.46 64.9299 337.62 63.4899 337.94 61.5699L339.86 51.0099C337.55 57.2899 334.88 62.1699 331.84 65.6599C328.8 69.1499 325.58 70.8899 322.19 70.8899C317.84 70.8899 315.66 68.4599 315.66 63.5899C315.66 62.3699 315.88 60.5799 316.33 58.2099L319.79 41.1099C319.98 40.1499 320.08 39.3499 320.08 38.7099C320.08 36.8499 319.47 35.9199 318.26 35.9199C317.05 35.9199 315.09 37.2599 312.4 39.9499C312.27 40.0799 312.14 40.1399 312.02 40.1399C311.83 40.1399 311.67 40.0299 311.54 39.7999C311.41 39.5799 311.44 39.3699 311.64 39.1799C313.82 36.6199 315.75 34.7299 317.45 33.5099C319.15 32.2899 320.83 31.6899 322.49 31.6899C324.99 31.6899 326.24 33.2599 326.24 36.3999C326.24 37.6199 326.05 39.1899 325.66 41.1099L322.59 56.3799C322.21 58.2999 322.01 59.9299 322.01 61.2799C322.01 64.7999 323.29 66.5599 325.85 66.5599C327.9 66.5599 329.99 65.2599 332.14 62.6699C334.28 60.0799 336.32 56.2999 338.24 51.3399C340.16 46.3799 341.73 40.4999 342.95 33.7199V33.4299C343.08 32.9199 343.46 32.5199 344.1 32.2299C344.74 31.9399 345.64 31.7999 346.79 31.7999C348.45 31.7999 349.29 32.0199 349.29 32.4699L348.91 34.3899C348.33 37.1399 347.98 38.8999 347.85 39.6699L343.91 61.0899C343.78 61.6699 343.72 62.4699 343.72 63.4899C343.72 65.4799 344.33 66.4699 345.54 66.4699C346.24 66.4699 347.14 66.0999 348.23 65.3699C349.32 64.6299 350.5 63.5899 351.78 62.2499C351.84 62.1899 351.94 62.1499 352.07 62.1499L352.05 62.1399Z" fill="#3F3926"/>
<path d="M384.95 32.4601C386.13 33.2301 386.73 34.2801 386.73 35.6301C386.73 37.6201 385.71 39.5201 383.66 41.3401C381.61 43.1601 378.89 44.7701 375.5 46.1401C372.11 47.5201 368.42 48.5301 364.46 49.1701C364.14 51.2201 363.98 52.9501 363.98 54.3601C363.98 58.2701 364.84 61.3901 366.57 63.7201C368.3 66.0601 370.76 67.2301 373.97 67.2301C377.43 67.2301 380.53 66.2101 383.29 64.1601L383.48 64.0601C383.61 64.0601 383.74 64.1701 383.86 64.4001C383.99 64.6301 384.02 64.8001 383.96 64.9301C379.41 68.8401 374.64 70.7901 369.65 70.7901C365.49 70.7901 362.33 69.4801 360.19 66.8501C358.04 64.2301 356.97 60.8301 356.97 56.6701C356.97 55.2601 357.13 53.6601 357.45 51.8701C358.09 48.5401 359.48 45.2901 361.63 42.1201C363.77 38.9501 366.46 36.3601 369.7 34.3401C372.93 32.3201 376.34 31.3101 379.93 31.3101C382.11 31.3101 383.79 31.6901 384.97 32.4601H384.95ZM379.33 37.1701C379.33 36.0801 378.96 35.2701 378.23 34.7201C377.49 34.1801 376.52 33.9001 375.3 33.9001C372.61 33.9001 370.35 35.2101 368.53 37.8401C366.71 40.4701 365.41 43.8301 364.64 47.9201C373.35 46.1301 378.18 42.9901 379.14 38.5101C379.27 37.8701 379.33 37.4201 379.33 37.1701Z" fill="#3F3926"/>
<path d="M419.71 33.1299C420.96 34.0899 421.58 35.2099 421.58 36.4899C421.58 37.4499 421.24 38.2999 420.57 39.0399C419.9 39.7799 419.05 40.1399 418.02 40.1399C417.31 40.1399 416.74 39.9999 416.29 39.7099C415.84 39.4199 415.36 38.9899 414.85 38.4099C414.53 38.0899 414.19 37.7899 413.84 37.4999C413.49 37.2099 413.09 37.0699 412.64 37.0699C411.3 37.0699 409.71 38.8599 407.89 42.4499C406.07 46.0399 404.34 50.3599 402.7 55.4199C401.07 60.4799 399.9 64.9299 399.19 68.7699C399 69.8599 397.72 70.3999 395.35 70.3999C393.75 70.3999 392.95 70.1699 392.95 69.7299C393.01 69.3499 393.22 68.3499 393.57 66.7499C393.92 65.1499 394.19 63.7399 394.39 62.5199L397.85 43.5999C398.11 42.1299 398.23 40.8099 398.23 39.6599C398.23 37.0399 397.52 35.7199 396.12 35.7199C394.72 35.7199 392.89 36.9399 390.45 39.3699C390.39 39.4299 390.29 39.4699 390.16 39.4699C389.97 39.4699 389.81 39.3599 389.68 39.1299C389.55 38.9099 389.55 38.7299 389.68 38.5999C391.73 36.2299 393.62 34.4899 395.35 33.3699C397.08 32.2499 398.77 31.6899 400.44 31.6899C401.78 31.6899 402.78 32.1099 403.42 32.9399C404.06 33.7699 404.38 35.1799 404.38 37.1699C404.38 38.7099 404.19 40.6899 403.8 43.1199L401.88 53.9699C403.86 47.4999 406.07 42.1699 408.51 37.9799C410.94 33.7899 413.38 31.6899 415.81 31.6899C417.15 31.6899 418.45 32.1699 419.7 33.1299H419.71Z" fill="#3F3926"/>
<path d="M458.56 62.1401C458.75 62.1401 458.93 62.2501 459.09 62.4801C459.25 62.7101 459.27 62.8801 459.14 63.0101C456.96 65.5101 455.01 67.3801 453.28 68.6301C451.55 69.8801 449.89 70.5001 448.29 70.5001C447.01 70.5001 446.06 70.1201 445.46 69.3501C444.85 68.5801 444.55 67.4001 444.55 65.8001C444.55 64.2001 444.71 62.6301 445.03 61.0901L446.57 52.1601C443.82 57.9201 440.63 62.4801 437.01 65.8501C433.39 69.2101 429.92 70.8901 426.59 70.8901C424.67 70.8901 423.18 70.3001 422.12 69.1101C421.06 67.9301 420.54 66.1201 420.54 63.6801C420.54 63.1001 420.6 62.1801 420.73 60.8901C421.37 56.4701 423.08 51.9401 425.87 47.3001C428.66 42.6601 431.94 38.8301 435.71 35.8201C439.49 32.8101 443.04 31.3101 446.37 31.3101C449.06 31.3101 451.24 32.1701 452.9 33.9001C454.12 32.8801 454.95 31.7601 455.4 30.5401C455.53 30.4101 455.66 30.3501 455.78 30.3501C455.97 30.3501 456.16 30.4001 456.36 30.4901C456.55 30.5901 456.62 30.6701 456.55 30.7301L450.88 61.0801C450.75 61.7201 450.69 62.5201 450.69 63.4801C450.69 65.4001 451.23 66.3601 452.32 66.3601C453.66 66.3601 455.65 64.9801 458.27 62.2301C458.33 62.1701 458.43 62.1301 458.56 62.1301V62.1401ZM437.77 62.0401C440.17 59.8001 442.32 56.9801 444.2 53.5901C446.09 50.2001 447.35 46.9301 447.99 43.7901C448.18 42.8901 448.28 42.0301 448.28 41.2001C448.28 39.3401 447.8 37.8701 446.84 36.7801C445.88 35.6901 444.5 35.1501 442.71 35.1501C440.53 35.1501 438.36 36.0301 436.18 37.7901C434 39.5501 432.11 41.9701 430.51 45.0401C428.91 48.1101 427.82 51.5701 427.24 55.4101C426.98 57.4601 426.86 58.8001 426.86 59.4401C426.86 63.4101 428.2 65.3901 430.89 65.3901C433.07 65.3901 435.36 64.2701 437.76 62.0301L437.77 62.0401Z" fill="#3F3926"/>
</svg>
