<svg width="498" height="97" viewBox="0 0 498 97" fill="none" xmlns="http://www.w3.org/2000/svg">
<path d="M41.92 32.7099C41.92 33.0899 41.86 33.2799 41.73 33.2799C40.16 33.2499 38.64 33.8499 37.51 34.9399C36.34 36.0499 35.22 37.8999 34.14 40.4899L22.28 68.6599C22.15 68.9799 21.8 69.1299 21.24 69.1299C20.83 69.1799 20.43 68.9899 20.2 68.6599L6.73 40.0199C5.46 37.2399 4.39 35.4199 3.51 34.5699C2.65 33.7299 1.49 33.2699 0.290001 33.2899C0.100001 33.2899 0 33.0999 0 32.7199C0 32.3399 0.100001 32.1499 0.290001 32.1499C1.49 32.1499 2.44 32.1799 3.14 32.2399L7.22 32.3299L13.67 32.2399C14.62 32.1799 15.91 32.1499 17.56 32.1499C17.75 32.1499 17.85 32.3399 17.85 32.7199C17.85 33.0999 17.75 33.2899 17.56 33.2899C13.83 33.2899 11.96 34.0199 11.96 35.4699C11.96 35.9999 12.1 36.5199 12.34 36.9899L23.63 60.6999L32.17 40.1199C32.55 39.2099 32.77 38.2499 32.83 37.2699C32.83 34.6099 30.4 33.2899 25.53 33.2899C25.4 33.2899 25.34 33.0999 25.34 32.7199C25.34 32.3399 25.4 32.1499 25.53 32.1499C27.24 32.1499 28.53 32.1799 29.42 32.2399L35.11 32.3299L38.71 32.2399C39.34 32.1799 40.35 32.1499 41.74 32.1499C41.87 32.1499 41.93 32.3399 41.93 32.7199L41.92 32.7099Z" fill="#3F3926"/>
<path d="M46.28 68.1899C46.28 67.8099 46.37 67.6199 46.56 67.6199C48.9 67.6199 50.45 67.1899 51.21 66.3399C51.97 65.4899 52.35 63.7299 52.35 61.0799V43.4399C52.35 41.2299 52.13 39.6099 51.69 38.5999C51.31 37.6299 50.36 37.0199 49.32 37.0799C48.24 37.0799 46.85 37.5199 45.15 38.4099H45.05C44.8 38.4099 44.61 38.2499 44.48 37.9399C44.35 37.6199 44.42 37.3999 44.67 37.2799L57.28 31.3999L57.66 31.3099C57.89 31.3299 58.11 31.4299 58.28 31.5899C58.47 31.7199 58.59 31.9299 58.61 32.1599C58.61 32.5999 58.58 33.8699 58.51 35.9499C58.45 38.0399 58.41 40.4999 58.41 43.3499V61.0899C58.41 62.9199 58.55 64.2999 58.84 65.2199C59.07 66.0799 59.68 66.7799 60.5 67.1199C61.32 67.4699 62.55 67.6399 64.2 67.6399C64.39 67.6399 64.48 67.8299 64.48 68.2099C64.48 68.5899 64.39 68.7799 64.2 68.7799C62.62 68.7799 61.39 68.7499 60.5 68.6899L55.38 68.5999L50.07 68.6899C49.18 68.7499 48.01 68.7899 46.56 68.7799C46.37 68.7799 46.28 68.5899 46.28 68.2099V68.1899ZM51.45 19.3399C50.66 18.5799 50.26 17.5099 50.26 16.1199C50.21 14.9899 50.64 13.8799 51.45 13.0799C52.24 12.3199 53.33 11.9399 54.72 11.9399C56.11 11.9399 57.09 12.3199 57.85 13.0799C58.63 13.8899 59.04 14.9899 58.99 16.1199C58.99 17.5099 58.61 18.5899 57.85 19.3399C57.09 20.0999 56.05 20.4799 54.72 20.4799C53.33 20.4799 52.24 20.0999 51.45 19.3399Z" fill="#3F3926"/>
<path d="M104.81 32.9C107.21 34.29 109.15 36.35 110.41 38.83C111.8 41.45 112.5 44.66 112.5 48.46C112.5 53.01 111.52 56.92 109.56 60.17C107.73 63.3 105.05 65.85 101.83 67.52C98.71 69.15 95.2499 69.99 91.7299 69.99C87.0599 70.05 82.5 68.59 78.74 65.82L71.25 69.23H71.06C70.84 69.25 70.64 69.11 70.59 68.9C70.53 68.67 70.6 68.43 70.78 68.28C72.68 67.02 74.04 65.74 74.86 64.44C75.68 63.14 76.09 61.33 76.09 58.99V12.23C76.09 9.95 75.88 8.33 75.47 7.35C75.06 6.37 74.28 5.88 73.15 5.88C72.01 5.88 70.59 6.29 68.88 7.11H68.78C68.53 7.11 68.34 6.94 68.21 6.59C68.08 6.24 68.15 6.04 68.4 5.97L80.64 0.0900002L81.11 0C81.34 0.02 81.56 0.119999 81.73 0.279999C81.92 0.409999 82.04 0.619998 82.06 0.849998V38.79C84.15 36.6 86.51 34.69 89.08 33.1C93.93 30.26 99.91 30.19 104.83 32.91L104.81 32.9ZM102.72 63.92C104.68 61.07 105.66 57.03 105.66 51.78C105.66 46.15 104.57 41.85 102.39 38.88C100.21 35.91 97.3499 34.42 93.8099 34.42C90.0199 34.42 86.1 36.44 82.05 40.49V55.76C82.05 58.61 82.7099 60.96 84.0399 62.83C85.2599 64.61 86.95 66.02 88.92 66.91C90.66 67.72 92.55 68.16 94.47 68.19C98.01 68.19 100.76 66.77 102.72 63.92Z" fill="#3F3926"/>
<path d="M120.38 68.1899C120.38 67.8099 120.47 67.6199 120.66 67.6199C123 67.6199 124.55 67.1899 125.31 66.3399C126.07 65.4899 126.45 63.7299 126.45 61.0799V43.4399C126.45 41.2299 126.23 39.6099 125.79 38.5999C125.41 37.6299 124.46 37.0199 123.42 37.0799C122.34 37.0799 120.95 37.5199 119.25 38.4099H119.15C118.9 38.4099 118.71 38.2499 118.58 37.9399C118.45 37.6199 118.52 37.3999 118.77 37.2799L131.38 31.3999L131.76 31.3099C131.99 31.3299 132.21 31.4299 132.38 31.5899C132.57 31.7199 132.69 31.9299 132.71 32.1599C132.71 32.5999 132.68 33.8699 132.61 35.9499C132.55 38.0399 132.51 40.4999 132.51 43.3499V61.0899C132.51 62.9199 132.65 64.2999 132.94 65.2199C133.17 66.0799 133.78 66.7799 134.6 67.1199C135.42 67.4699 136.65 67.6399 138.3 67.6399C138.49 67.6399 138.58 67.8299 138.58 68.2099C138.58 68.5899 138.49 68.7799 138.3 68.7799C136.72 68.7799 135.49 68.7499 134.6 68.6899L129.48 68.5999L124.17 68.6899C123.28 68.7499 122.11 68.7899 120.66 68.7799C120.47 68.7799 120.38 68.5899 120.38 68.2099V68.1899ZM125.55 19.3399C124.76 18.5799 124.36 17.5099 124.36 16.1199C124.31 14.9899 124.74 13.8799 125.55 13.0799C126.34 12.3199 127.43 11.9399 128.82 11.9399C130.21 11.9399 131.19 12.3199 131.95 13.0799C132.73 13.8899 133.14 14.9899 133.09 16.1199C133.09 17.5099 132.71 18.5899 131.95 19.3399C131.19 20.0999 130.15 20.4799 128.82 20.4799C127.43 20.4799 126.34 20.0999 125.55 19.3399Z" fill="#3F3926"/>
<path d="M153.72 67.2899C150.91 65.4999 148.65 62.9699 147.17 59.9899C145.61 56.8899 144.82 53.4599 144.85 49.9799C144.85 45.8699 145.86 42.3799 147.88 39.4999C149.82 36.6899 152.5 34.4599 155.61 33.0499C158.63 31.6499 161.91 30.9199 165.24 30.9199C168.97 30.9199 172.24 31.8399 175.06 33.6699C177.84 35.4599 180.08 37.9699 181.56 40.9299C183.07 43.8799 183.85 47.1499 183.84 50.4599C183.84 54.3799 182.92 57.8099 181.09 60.7499C179.29 63.6599 176.73 66.0199 173.69 67.5799C170.55 69.1999 167.07 70.0299 163.54 69.9999C159.81 69.9999 156.54 69.0999 153.72 67.2999V67.2899ZM173.93 64.4899C175.73 62.0199 176.63 58.2599 176.63 53.1999C176.63 49.2199 176 45.6799 174.73 42.5799C173.46 39.4799 171.73 37.0799 169.51 35.3699C167.41 33.6999 164.8 32.7999 162.11 32.8099C158.89 32.8099 156.39 34.0099 154.62 36.4099C152.85 38.8099 151.96 42.3199 151.96 46.9399C151.92 50.6099 152.54 54.2599 153.81 57.7099C155.04 60.9699 156.74 63.5299 158.88 65.3899C160.91 67.2099 163.55 68.2099 166.28 68.1899C169.57 68.1899 172.11 66.9599 173.91 64.4899H173.93Z" fill="#3F3926"/>
<path d="M190.97 68.47C190.18 67.65 189.78 66.54 189.78 65.15C189.73 64.02 190.16 62.91 190.97 62.11C191.76 61.35 192.85 60.97 194.24 60.97C195.63 60.97 196.7 61.33 197.46 62.06C198.22 62.79 198.6 63.82 198.6 65.14C198.6 66.6 198.22 67.72 197.46 68.51C196.7 69.3 195.63 69.69 194.24 69.7C192.85 69.7 191.76 69.29 190.97 68.47Z" fill="#3F3926"/>
<path d="M244.47 34.2199C245.88 36.0699 246.58 38.5399 246.58 41.5999C246.58 43.0099 246.45 44.3499 246.2 45.6299C245.18 50.8099 243.21 55.3199 240.3 59.1499C237.39 62.9899 234.11 65.9099 230.47 67.9199C226.83 69.9299 223.44 70.9399 220.31 70.9399C217.18 70.9399 214.91 70.2799 213.12 68.9699C211.33 67.6599 210.43 65.9199 210.43 63.7399C210.43 63.3599 210.49 62.7799 210.62 62.0099L220.02 11.1899C220.21 10.2999 220.31 9.49991 220.31 8.78991C220.31 7.12991 219.64 6.29991 218.3 6.29991C217.28 6.29991 215.81 6.77991 213.89 7.73991H213.79C213.47 7.73991 213.26 7.55991 213.17 7.20991C213.07 6.85991 213.15 6.64991 213.41 6.58991L226.64 0.159912H226.83C227.08 0.159912 227.31 0.259911 227.5 0.449911C227.69 0.639911 227.76 0.799913 227.69 0.929913L219.16 48.3999C221.33 43.3499 224.19 39.2599 227.74 36.1299C231.29 32.9999 234.95 31.4299 238.72 31.4299C241.15 31.4299 243.07 32.3599 244.47 34.2099V34.2199ZM239.48 43.7199C239.48 41.4799 239.03 39.7099 238.14 38.3999C237.24 37.0899 235.93 36.4299 234.21 36.4299C231.72 36.4299 229.3 37.4399 226.97 39.4499C224.64 41.4599 222.59 44.2899 220.83 47.9399C219.07 51.5799 217.78 55.7699 216.95 60.4999C216.89 60.8199 216.85 61.2699 216.85 61.8399C216.85 63.8199 217.52 65.4199 218.86 66.6299C220.2 67.8499 221.96 68.4499 224.13 68.4499C226.18 68.4499 228.21 67.6499 230.22 66.0499C232.23 64.4499 234.01 62.1499 235.54 59.1499C237.07 56.1499 238.19 52.6299 238.9 48.5999C239.28 46.8699 239.48 45.2399 239.48 43.7099V43.7199Z" fill="#3F3926"/>
<path d="M278.87 32.59C280.05 33.36 280.64 34.41 280.64 35.75C280.64 37.73 279.62 39.6299 277.57 41.4599C275.52 43.2799 272.81 44.88 269.42 46.25C266.03 47.63 262.36 48.6299 258.39 49.2699C258.07 51.3199 257.91 53.0399 257.91 54.4499C257.91 58.3499 258.77 61.47 260.5 63.8C262.23 66.13 264.69 67.3 267.88 67.3C271.33 67.3 274.43 66.2799 277.18 64.2299L277.37 64.1299C277.5 64.1299 277.62 64.24 277.75 64.47C277.88 64.69 277.91 64.87 277.85 65C273.31 68.9 268.55 70.8499 263.56 70.8499C259.4 70.8499 256.26 69.5399 254.11 66.9199C251.97 64.2999 250.9 60.91 250.9 56.76C250.9 55.35 251.06 53.76 251.38 51.97C252.02 48.65 253.41 45.3999 255.55 42.2399C257.69 39.0799 260.38 36.49 263.6 34.47C266.83 32.46 270.23 31.45 273.81 31.45C275.98 31.45 277.66 31.8299 278.84 32.5999L278.87 32.59ZM273.26 37.29C273.26 36.2 272.89 35.3899 272.16 34.8399C271.42 34.2999 270.45 34.0299 269.24 34.0299C266.55 34.0299 264.3 35.3399 262.48 37.9599C260.66 40.5799 259.36 43.9399 258.6 48.0299C267.29 46.2399 272.12 43.1099 273.08 38.6299C273.21 37.9899 273.27 37.54 273.27 37.29H273.26Z" fill="#3F3926"/>
<path d="M314.52 33.2598C315.77 34.2198 316.39 35.3398 316.39 36.6198C316.39 37.5798 316.05 38.4298 315.38 39.1598C314.71 39.8998 313.86 40.2598 312.84 40.2598C312.14 40.2598 311.56 40.1198 311.11 39.8298C310.66 39.5398 310.18 39.1098 309.67 38.5398C309.35 38.2198 309.01 37.9198 308.66 37.6298C308.31 37.3398 307.91 37.1998 307.46 37.1998C306.12 37.1998 304.54 38.9898 302.71 42.5698C300.89 46.1498 299.16 50.4698 297.53 55.5198C295.9 60.5698 294.73 65.0098 294.03 68.8498C293.84 69.9398 292.56 70.4798 290.19 70.4798C288.59 70.4798 287.79 70.2598 287.79 69.8098C287.85 69.4298 288.06 68.4398 288.41 66.8398C288.76 65.2398 289.03 63.8398 289.22 62.6198L292.67 43.7298C292.92 42.2598 293.05 40.9498 293.05 39.7998C293.05 37.1798 292.35 35.8698 290.94 35.8698C289.53 35.8698 287.71 37.0898 285.28 39.5098C285.22 39.5698 285.12 39.6098 284.99 39.6098C284.8 39.6098 284.64 39.4998 284.51 39.2698C284.38 39.0498 284.38 38.8698 284.51 38.7398C286.56 36.3798 288.44 34.6298 290.17 33.5098C291.9 32.3898 293.59 31.8298 295.25 31.8298C296.59 31.8298 297.58 32.2498 298.22 33.0798C298.86 33.9098 299.18 35.3198 299.18 37.2998C299.18 38.8298 298.99 40.8198 298.6 43.2498L296.68 54.0898C298.66 47.6298 300.87 42.3098 303.3 38.1198C305.73 33.9298 308.16 31.8398 310.59 31.8398C311.93 31.8398 313.23 32.3198 314.47 33.2798L314.52 33.2598Z" fill="#3F3926"/>
<path d="M319.58 69.4199C318.94 68.6499 318.62 67.4699 318.62 65.8699C318.62 64.6599 318.81 63.0899 319.2 61.1699L328.41 11.2099C328.6 10.2499 328.7 9.44993 328.7 8.80993C328.7 7.14993 328.06 6.31993 326.78 6.31993C325.76 6.31993 324.29 6.79993 322.37 7.75993H322.27C321.95 7.75993 321.74 7.57993 321.65 7.22993C321.55 6.87993 321.63 6.66993 321.89 6.60993L335.12 0.179932H335.31C335.56 0.179932 335.79 0.279931 335.98 0.469931C336.17 0.659931 336.23 0.81993 336.17 0.94993L325.14 61.1699C324.95 62.1899 324.85 63.0599 324.85 63.7599C324.85 65.5499 325.43 66.4499 326.58 66.4499C327.22 66.4499 328.02 66.0999 328.98 65.3999C329.94 64.6999 331.12 63.6699 332.53 62.3299C332.66 62.1999 332.78 62.1399 332.91 62.1399C333.1 62.1399 333.26 62.2499 333.39 62.4799C333.52 62.6999 333.49 62.9099 333.29 63.0999C331.12 65.6599 329.18 67.5399 327.49 68.7599C325.8 69.9699 324.12 70.5799 322.46 70.5799C321.18 70.5799 320.22 70.1999 319.58 69.4299V69.4199Z" fill="#3F3926"/>
<path d="M375.41 62.22C375.6 62.22 375.78 62.33 375.94 62.56C376.1 62.78 376.12 62.96 375.99 63.09C373.82 65.58 371.87 67.45 370.14 68.7C368.41 69.95 366.75 70.57 365.15 70.57C363.87 70.57 362.93 70.19 362.32 69.42C361.71 68.65 361.41 67.47 361.41 65.87C361.41 64.27 361.57 62.71 361.89 61.17L363.42 52.25C360.67 58 357.49 62.56 353.88 65.92C350.27 69.28 346.8 70.95 343.48 70.95C341.56 70.95 340.08 70.36 339.02 69.18C337.97 68 337.44 66.19 337.44 63.76C337.44 63.18 337.5 62.26 337.63 60.98C338.27 56.57 339.98 52.05 342.76 47.41C345.54 42.78 348.82 38.96 352.59 35.95C356.36 32.95 359.91 31.44 363.23 31.44C365.92 31.44 368.09 32.3 369.75 34.03C370.96 33.01 371.8 31.89 372.24 30.67C372.37 30.54 372.49 30.48 372.62 30.48C372.81 30.48 373 30.53 373.2 30.62C373.39 30.72 373.45 30.8 373.39 30.86L367.73 61.16C367.6 61.8 367.54 62.6 367.54 63.56C367.54 65.48 368.08 66.44 369.17 66.44C370.51 66.44 372.49 65.07 375.12 62.32C375.18 62.26 375.28 62.22 375.41 62.22ZM354.65 62.13C357.05 59.89 359.19 57.08 361.08 53.69C362.96 50.3 364.23 47.04 364.87 43.91C365.06 43.02 365.16 42.15 365.16 41.32C365.16 39.47 364.68 38 363.72 36.91C362.76 35.82 361.39 35.28 359.6 35.28C357.43 35.28 355.25 36.16 353.08 37.92C350.91 39.68 349.02 42.09 347.42 45.16C345.82 48.23 344.73 51.68 344.16 55.52C343.9 57.57 343.78 58.91 343.78 59.55C343.78 63.51 345.12 65.5 347.81 65.5C349.98 65.5 352.27 64.38 354.67 62.14L354.65 62.13Z" fill="#3F3926"/>
<path d="M420.38 62.1299C420.57 62.1299 420.73 62.2399 420.86 62.4699C420.99 62.6899 420.99 62.8999 420.86 63.0899C418.56 65.6499 416.58 67.5299 414.91 68.7499C413.25 69.9599 411.59 70.5699 409.92 70.5699C408.64 70.5699 407.71 70.1999 407.14 69.4699C406.57 68.7399 406.28 67.5399 406.28 65.8699C406.28 64.7799 406.44 63.2199 406.76 61.1699L409.54 45.9199C409.92 43.9999 410.12 42.3399 410.12 40.9299C410.12 37.4799 408.87 35.7499 406.38 35.7499C404.33 35.7499 402.22 37.0599 400.05 39.6799C397.88 42.2999 395.83 46.1099 393.91 51.0899C391.99 56.0799 390.43 61.9899 389.21 68.8299C389.02 69.9199 387.74 70.4599 385.37 70.4599C383.71 70.4599 382.88 70.2399 382.88 69.7899L383.26 67.8699C383.84 65.1199 384.19 63.3599 384.31 62.5999L388.24 41.2199C388.43 40.2599 388.53 39.4599 388.53 38.8199C388.53 36.8399 387.92 35.8499 386.71 35.8499C386.01 35.8499 385.11 36.2199 384.02 36.9499C382.93 37.6899 381.75 38.7199 380.47 40.0699C380.34 40.1999 380.21 40.2599 380.09 40.2599C379.9 40.2599 379.74 40.1499 379.61 39.9199C379.48 39.6999 379.51 39.4899 379.71 39.2999C381.88 36.7399 383.88 34.8599 385.7 33.6399C387.52 32.4299 389.26 31.8199 390.93 31.8199C392.21 31.8199 393.15 32.1899 393.76 32.9199C394.37 33.6599 394.67 34.8199 394.67 36.4199C394.67 37.3799 394.51 38.8199 394.19 40.7399L392.27 51.2899C394.57 45.0299 397.26 40.1499 400.33 36.6699C403.4 33.1899 406.63 31.4399 410.02 31.4399C412.13 31.4399 413.71 32.0499 414.77 33.2599C415.82 34.4799 416.35 36.3299 416.35 38.8199C416.35 40.2899 416.16 42.0499 415.77 44.0899L412.7 61.1599C412.51 62.1199 412.41 62.9499 412.41 63.6499C412.41 65.5099 412.99 66.4299 414.14 66.4299C414.78 66.4299 415.58 66.0799 416.54 65.3799C417.5 64.6799 418.65 63.6499 419.99 62.3099C420.12 62.1799 420.24 62.1199 420.37 62.1199L420.38 62.1299Z" fill="#3F3926"/>
<path d="M459.7 33.0698C459.7 33.9698 459.56 34.8898 459.27 35.8498C458.98 36.8098 458.71 37.2298 458.46 37.0998C456.48 35.9498 454.05 35.4398 451.17 35.5698C452.51 37.3598 453.18 39.6298 453.18 42.3798C453.18 43.6598 453.05 44.9098 452.8 46.1198C452.22 48.9298 451.11 51.4098 449.44 53.5498C447.78 55.6898 445.81 57.3498 443.54 58.5398C441.27 59.7198 438.95 60.3098 436.59 60.3098C436.01 60.3098 435.28 60.2498 434.38 60.1198C433.61 61.0798 433.23 62.1298 433.23 63.2798C433.23 64.7498 433.92 66.0298 435.29 67.1198C436.66 68.2098 438.79 69.4498 441.67 70.8598C444.1 72.0698 446.05 73.1598 447.52 74.1198C448.99 75.0798 450.25 76.2398 451.31 77.6198C452.36 78.9898 452.89 80.6098 452.89 82.4598C452.89 85.0198 451.95 87.3798 450.06 89.5598C448.17 91.7298 445.66 93.4598 442.53 94.7398C439.4 96.0198 436.01 96.6598 432.36 96.6598C427.82 96.6598 424.24 95.7298 421.62 93.8798C419 92.0198 417.69 89.7598 417.69 87.0698C417.69 84.3798 418.84 81.8598 421.14 79.6898C423.44 77.5198 426.8 75.1798 431.21 72.6898C428.91 71.0898 427.76 69.3698 427.76 67.5098C427.76 66.2298 428.19 64.9698 429.05 63.7198C429.91 62.4698 431.21 61.1498 432.93 59.7398C430.88 59.0398 429.32 57.7898 428.23 55.9998C427.14 54.2098 426.6 52.0698 426.6 49.5698C426.6 48.7998 426.73 47.6498 426.98 46.1198C427.81 42.0898 429.76 38.7498 432.83 36.0998C435.9 33.4498 439.38 32.1198 443.28 32.1198C445.9 32.1198 448.07 32.8198 449.8 34.2298C453.32 32.6298 456.45 31.8298 459.2 31.8298C459.52 31.8298 459.68 32.2498 459.68 33.0798L459.7 33.0698ZM444.6 80.5898C442.84 79.1498 440.24 77.5398 436.78 75.7498C434.86 74.8498 433.36 74.0598 432.27 73.3498C429.78 74.8798 427.81 76.4998 426.37 78.1898C424.93 79.8798 424.21 81.9098 424.21 84.2798C424.21 87.0898 425.41 89.3898 427.81 91.1798C430.21 92.9698 433.29 93.8698 437.06 93.8698C440.32 93.8698 442.83 93.1298 444.59 91.6598C446.35 90.1898 447.23 88.3698 447.23 86.1898C447.23 83.8898 446.35 82.0198 444.59 80.5798L444.6 80.5898ZM446.85 44.8698C446.85 41.8698 446.37 39.2898 445.41 37.1498C444.45 35.0098 442.98 33.9398 441 33.9398C439.21 33.9398 437.58 34.9298 436.11 36.9098C434.64 38.8898 433.68 41.3498 433.23 44.2898C433.04 45.5098 432.94 46.7198 432.94 47.9298C432.94 50.8698 433.48 53.3498 434.57 55.3598C435.66 57.3698 437.16 58.3798 439.08 58.3798C440.81 58.3798 442.39 57.4498 443.83 55.5998C445.27 53.7498 446.21 51.2498 446.66 48.1198C446.79 47.4198 446.85 46.3298 446.85 44.8598V44.8698Z" fill="#3F3926"/>
<path d="M497.2 62.22C497.39 62.22 497.57 62.33 497.73 62.56C497.89 62.78 497.91 62.96 497.78 63.09C495.61 65.58 493.66 67.45 491.93 68.7C490.2 69.95 488.54 70.57 486.94 70.57C485.66 70.57 484.72 70.19 484.11 69.42C483.5 68.65 483.2 67.47 483.2 65.87C483.2 64.27 483.36 62.71 483.68 61.17L485.21 52.25C482.46 58 479.28 62.56 475.67 65.92C472.06 69.28 468.59 70.95 465.27 70.95C463.35 70.95 461.87 70.36 460.81 69.18C459.75 68 459.23 66.19 459.23 63.76C459.23 63.18 459.29 62.26 459.42 60.98C460.06 56.57 461.77 52.05 464.55 47.41C467.33 42.78 470.61 38.96 474.38 35.95C478.15 32.95 481.7 31.44 485.02 31.44C487.71 31.44 489.88 32.3 491.54 34.03C492.75 33.01 493.59 31.89 494.03 30.67C494.16 30.54 494.28 30.48 494.41 30.48C494.6 30.48 494.79 30.53 494.99 30.62C495.18 30.72 495.24 30.8 495.18 30.86L489.52 61.16C489.39 61.8 489.33 62.6 489.33 63.56C489.33 65.48 489.87 66.44 490.96 66.44C492.3 66.44 494.28 65.07 496.91 62.32C496.97 62.26 497.07 62.22 497.2 62.22ZM476.43 62.13C478.83 59.89 480.97 57.08 482.86 53.69C484.74 50.3 486.01 47.04 486.65 43.91C486.84 43.02 486.94 42.15 486.94 41.32C486.94 39.47 486.46 38 485.5 36.91C484.54 35.82 483.17 35.28 481.38 35.28C479.21 35.28 477.03 36.16 474.86 37.92C472.69 39.68 470.8 42.09 469.2 45.16C467.6 48.23 466.51 51.68 465.94 55.52C465.68 57.57 465.56 58.91 465.56 59.55C465.56 63.51 466.9 65.5 469.59 65.5C471.76 65.5 474.05 64.38 476.45 62.14L476.43 62.13Z" fill="#3F3926"/>
</svg>
