<?xml version="1.0" encoding="UTF-8"?><svg id="Layer_1" xmlns="http://www.w3.org/2000/svg" viewBox="0 0 443.36 146.79"><defs><style>.cls-1{fill:#3f3926;}</style></defs><path class="cls-1" d="M84.96,67.43c0,.38-.06.57-.19.57-1.57-.03-3.08.57-4.21,1.66-1.17,1.11-2.29,2.95-3.36,5.54l-11.84,28.13c-.13.32-.47.47-1.04.47-.41.05-.81-.14-1.04-.47l-13.45-28.6c-1.26-2.78-2.34-4.59-3.22-5.45-.86-.84-2.02-1.3-3.22-1.28-.19,0-.28-.19-.28-.57,0-.38.09-.57.28-.57,1.2,0,2.15.03,2.84.09l4.07.09,6.44-.09c.95-.06,2.24-.09,3.88-.09.19,0,.28.19.28.57,0,.38-.09.57-.28.57-3.73,0-5.59.73-5.59,2.18,0,.53.13,1.05.38,1.52l11.27,23.68,8.52-20.55c.38-.9.6-1.86.66-2.84,0-2.65-2.43-3.98-7.29-3.98-.13,0-.19-.19-.19-.57s.06-.57.19-.57c1.71,0,3,.03,3.88.09l5.68.09,3.6-.09c.63-.06,1.64-.09,3.03-.09.13,0,.19.19.19.57Z"/><path class="cls-1" d="M89.32,102.85c0-.38.09-.57.28-.57,2.34,0,3.88-.43,4.64-1.28.76-.85,1.14-2.6,1.14-5.26v-17.61c0-2.21-.22-3.82-.66-4.83-.38-.97-1.33-1.58-2.37-1.52-1.07,0-2.46.44-4.17,1.33h-.09c-.25,0-.44-.16-.57-.47-.13-.32-.06-.54.19-.66l12.59-5.87.38-.09c.23.02.45.12.62.28.19.13.31.34.33.57,0,.44-.03,1.71-.09,3.79-.06,2.08-.1,4.55-.09,7.39v17.71c0,1.83.14,3.2.43,4.12.23.85.84,1.55,1.66,1.89.82.35,2.05.52,3.69.52.19,0,.28.19.28.57,0,.38-.09.57-.28.57-1.58,0-2.81-.03-3.69-.09l-5.11-.09-5.3.09c-.89.06-2.05.1-3.5.09-.19,0-.28-.19-.28-.57ZM94.48,54.08c-.79-.76-1.19-1.83-1.18-3.22-.05-1.13.38-2.23,1.18-3.03.79-.76,1.88-1.14,3.27-1.14s2.37.38,3.12,1.14c.78.81,1.19,1.91,1.14,3.03,0,1.39-.38,2.46-1.14,3.22-.76.76-1.8,1.14-3.12,1.14-1.39,0-2.48-.38-3.27-1.14Z"/><path class="cls-1" d="M147.75,67.62c2.4,1.39,4.34,3.45,5.59,5.92,1.39,2.62,2.08,5.82,2.08,9.61,0,4.55-.98,8.44-2.94,11.7-1.83,3.13-4.5,5.67-7.72,7.34-3.11,1.62-6.57,2.47-10.09,2.46-4.66.06-9.22-1.4-12.97-4.17l-7.48,3.41h-.19c-.22.02-.42-.12-.47-.33-.06-.22.01-.47.19-.62,1.89-1.26,3.25-2.54,4.07-3.84.82-1.29,1.23-3.11,1.23-5.45v-46.69c0-2.27-.21-3.9-.62-4.88-.41-.98-1.18-1.47-2.32-1.47-1.14,0-2.56.41-4.26,1.23h-.09c-.25,0-.44-.17-.57-.52-.13-.35-.06-.55.19-.62l12.22-5.87.47-.09c.23.02.45.12.62.28.19.13.31.34.33.57v37.88c2.09-2.18,4.44-4.09,7.01-5.68,4.84-2.84,10.81-2.91,15.72-.19h0ZM145.66,98.59c1.96-2.84,2.94-6.88,2.94-12.12,0-5.62-1.09-9.91-3.27-12.88-2.18-2.97-5.04-4.45-8.57-4.45-3.79,0-7.7,2.02-11.74,6.06v15.25c0,2.84.66,5.19,1.99,7.06,1.22,1.78,2.91,3.19,4.88,4.07,1.74.81,3.62,1.25,5.54,1.28,3.54,0,6.28-1.42,8.24-4.26Z"/><path class="cls-1" d="M163.3,102.85c0-.38.09-.57.28-.57,2.34,0,3.88-.43,4.64-1.28.76-.85,1.14-2.6,1.14-5.26v-17.61c0-2.21-.22-3.82-.66-4.83-.38-.97-1.33-1.58-2.37-1.52-1.07,0-2.46.44-4.17,1.33h-.09c-.25,0-.44-.16-.57-.47-.13-.32-.06-.54.19-.66l12.59-5.87.38-.09c.23.02.45.12.62.28.19.13.31.34.33.57,0,.44-.03,1.71-.09,3.79-.06,2.08-.1,4.55-.09,7.39v17.71c0,1.83.14,3.2.43,4.12.23.85.84,1.55,1.66,1.89.82.35,2.05.52,3.69.52.19,0,.28.19.28.57,0,.38-.09.57-.28.57-1.58,0-2.81-.03-3.69-.09l-5.11-.09-5.3.09c-.89.06-2.05.1-3.5.09-.19,0-.28-.19-.28-.57ZM168.46,54.08c-.79-.76-1.19-1.83-1.18-3.22-.05-1.13.38-2.23,1.18-3.03.79-.76,1.88-1.14,3.27-1.14s2.37.38,3.12,1.14c.78.81,1.19,1.91,1.14,3.03,0,1.39-.38,2.46-1.14,3.22-.76.76-1.8,1.14-3.12,1.14-1.39,0-2.48-.38-3.27-1.14Z"/><path class="cls-1" d="M196.59,101.95c-2.8-1.79-5.06-4.31-6.54-7.29-1.56-3.1-2.35-6.52-2.32-9.99,0-4.1,1.01-7.59,3.03-10.46,1.94-2.81,4.61-5.03,7.72-6.44,3.01-1.4,6.29-2.12,9.61-2.13,3.72,0,6.99.92,9.8,2.75,2.77,1.79,5.01,4.29,6.49,7.24,1.5,2.95,2.28,6.21,2.27,9.52,0,3.92-.92,7.34-2.75,10.28-1.8,2.9-4.35,5.26-7.39,6.82-3.13,1.62-6.61,2.45-10.13,2.42-3.73,0-6.99-.9-9.8-2.7ZM216.76,99.16c1.8-2.46,2.7-6.22,2.7-11.27,0-3.98-.63-7.51-1.89-10.61-1.26-3.09-3-5.49-5.21-7.2-2.1-1.67-4.71-2.57-7.39-2.56-3.22,0-5.71,1.2-7.48,3.6-1.77,2.4-2.65,5.9-2.65,10.51-.04,3.67.58,7.31,1.85,10.75,1.23,3.25,2.92,5.81,5.07,7.67,2.03,1.82,4.66,2.82,7.39,2.79,3.28,0,5.82-1.23,7.62-3.69Z"/><path class="cls-1" d="M233.77,103.14c-.79-.82-1.19-1.92-1.18-3.31-.05-1.13.38-2.23,1.18-3.03.79-.76,1.88-1.14,3.27-1.14,1.39,0,2.46.36,3.22,1.09.76.73,1.14,1.75,1.14,3.08,0,1.45-.38,2.57-1.14,3.36-.76.79-1.83,1.18-3.22,1.18-1.39,0-2.48-.41-3.27-1.23Z"/><path class="cls-1" d="M254.23,103.14c-.63-.76-.95-1.93-.95-3.5.04-1.56.23-3.12.57-4.64l9.09-49.34c.17-.78.27-1.57.28-2.37,0-1.64-.63-2.46-1.89-2.46-1.01,0-2.46.47-4.36,1.42h-.09c-.31,0-.57-.22-.62-.52-.09-.35-.02-.55.24-.62l13.07-6.34h.19c.25,0,.49.1.66.28.19.19.25.35.19.47l-10.89,59.47c-.17.81-.27,1.63-.28,2.46,0,1.83.57,2.75,1.71,2.75.63,0,1.42-.35,2.37-1.04,1.23-.94,2.4-1.95,3.5-3.03.1-.11.23-.18.38-.19.21.01.39.14.47.33.13.2.09.46-.09.62-2.15,2.53-4.06,4.39-5.73,5.59-1.67,1.2-3.33,1.8-4.97,1.8-1.26,0-2.21-.38-2.84-1.14Z"/><path class="cls-1" d="M310.08,96.03c.21.01.39.14.47.33.13.22.13.39,0,.52-2.08,2.46-3.98,4.31-5.68,5.54-1.7,1.23-3.35,1.85-4.92,1.85-1.26,0-2.2-.38-2.79-1.14-.6-.76-.9-1.96-.9-3.6.05-1.52.21-3.04.47-4.55l1.51-9c-2.72,5.75-5.84,10.29-9.38,13.64-3.54,3.35-6.98,5.02-10.32,5.02-1.89,0-3.36-.58-4.4-1.75-1.04-1.17-1.56-2.95-1.56-5.35,0-.57.06-1.48.19-2.75.63-4.36,2.32-8.82,5.07-13.4,2.53-4.33,5.82-8.16,9.71-11.32,3.72-2.97,7.23-4.45,10.51-4.45,2.65,0,4.8.85,6.44,2.56,1.1-.87,1.95-2.01,2.46-3.31.1-.11.23-.18.38-.19.2,0,.39.05.57.14.19.09.25.17.19.24l-5.49,29.93c-.18.84-.27,1.7-.28,2.56,0,1.77.54,2.65,1.61,2.65,1.33,0,3.28-1.36,5.87-4.07.08-.07.18-.1.28-.09ZM289.58,95.94c2.54-2.43,4.68-5.24,6.35-8.33,1.73-3.01,2.99-6.27,3.74-9.66.19-.84.28-1.7.28-2.56,0-1.83-.47-3.28-1.42-4.36-.95-1.07-2.3-1.61-4.07-1.61-2.15,0-4.29.87-6.44,2.6-2.15,1.74-4.01,4.12-5.59,7.15-1.64,3.21-2.72,6.66-3.22,10.23-.25,2.02-.38,3.35-.38,3.98,0,3.92,1.33,5.87,3.98,5.87,2.15,0,4.4-1.1,6.77-3.31h0Z"/><path class="cls-1" d="M354.5,95.94c.35.05.6.38.54.73-.01.07-.04.15-.07.21-2.15,2.53-4.07,4.39-5.78,5.59-1.71,1.2-3.38,1.8-5.02,1.8-1.26,0-2.18-.36-2.75-1.09-.57-.73-.85-1.91-.85-3.55.05-1.56.2-3.11.47-4.64l2.75-15.06c.35-1.62.54-3.27.57-4.92,0-3.41-1.23-5.11-3.69-5.11-2.02,0-4.1,1.29-6.25,3.88-2.15,2.59-4.17,6.35-6.06,11.27-1.89,4.92-3.44,10.76-4.64,17.52-.17.55-.59.99-1.14,1.18-.81.32-1.68.46-2.56.43-1.7,0-2.56-.22-2.56-.66l.38-1.89c.57-2.71.92-4.45,1.04-5.21l3.88-21.12c.17-.78.26-1.57.28-2.37,0-1.96-.6-2.93-1.8-2.94-1.52,0-3.6,1.39-6.25,4.17-.08.07-.18.1-.28.09-.21-.01-.39-.14-.47-.33-.13-.22-.13-.39,0-.52,2.15-2.52,4.13-4.39,5.97-5.59,1.83-1.2,3.6-1.8,5.3-1.8,1.26,0,2.18.36,2.75,1.09.57.73.85,1.88.85,3.46-.05,1.43-.21,2.85-.47,4.26l-1.89,10.42c2.27-6.19,4.92-11,7.95-14.44,3.03-3.44,6.22-5.16,9.57-5.16,2.08,0,3.65.6,4.69,1.8,1.04,1.2,1.56,3.03,1.56,5.49-.03,1.75-.22,3.49-.57,5.21l-3.12,16.86c-.17.78-.27,1.57-.28,2.37,0,1.89.6,2.84,1.8,2.84.63,0,1.42-.35,2.37-1.04,1.23-.94,2.4-1.95,3.5-3.03.13-.13.22-.19.28-.19Z"/><path class="cls-1" d="M389.35,94.99c-.17.81-.27,1.63-.28,2.46,0,1.83.57,2.75,1.7,2.75.63,0,1.42-.35,2.37-1.04,1.23-.94,2.4-1.95,3.5-3.03.1-.11.23-.18.38-.19.21.01.39.14.47.33.13.2.09.46-.09.62-2.21,2.53-4.14,4.39-5.78,5.59-1.64,1.2-3.28,1.8-4.92,1.8-1.26,0-2.2-.36-2.79-1.09-.6-.73-.9-1.88-.9-3.46.04-1.59.23-3.18.57-4.74l1.61-8.43c-2.78,5.62-5.75,10.04-8.9,13.26-3.16,3.22-6.38,4.83-9.66,4.83-2.12.06-4.17-.74-5.68-2.23-1.52-1.48-2.27-3.8-2.27-6.96,0-1.34.12-2.67.38-3.98,1.76-9.07,7.04-17.07,14.68-22.26,3.66-2.4,7.26-3.6,10.8-3.6,1.52-.05,3.02.31,4.36,1.04l3.88-21.02c.14-.72.2-1.45.19-2.18,0-1.77-.66-2.65-1.99-2.65-.95,0-2.43.47-4.45,1.42h-.09c-.25,0-.43-.17-.52-.52-.09-.35-.02-.55.24-.62l13.07-6.34h.19c.25,0,.49.1.66.28.19.19.25.35.19.47l-10.89,59.47ZM378.17,95.04c2.65-3.04,4.8-6.5,6.34-10.23,1.64-3.88,2.46-6.93,2.46-9.14,0-2.02-.57-3.57-1.7-4.64-1.14-1.07-2.65-1.61-4.55-1.61-3.85,0-7.17,1.53-9.94,4.59-2.78,3.06-4.64,7.47-5.59,13.21-.25,1.44-.38,2.9-.38,4.36,0,2.59.47,4.55,1.42,5.87.9,1.3,2.4,2.05,3.98,1.99,2.71,0,5.37-1.47,7.96-4.4Z"/></svg>