<?xml version="1.0" encoding="UTF-8"?><svg id="Layer_1" xmlns="http://www.w3.org/2000/svg" viewBox="0 0 406.32 419.64"><defs><style>.cls-1{fill:#847132;}</style></defs><path class="cls-1" d="M57.94,247.64c6.81,3.86,13.57,6.38,20.5,9.39,23.87,10.34,26.44,22.08,39.22,27.57,4.47,1.92,9.32,2.53,13.99,3.84,10.21,2.87,18.68,8.84,24.74,17.43l4.76,6.76c5.27.58,10.25,1.19,14.63,3.95,3.09,1.95,6.21,4.26,8.71,6.98l17.55,19.07c4.54,4.93,9.93,8.61,15.73,12.47l-8.81-24.97c-7.49-21.22-14.36-57.38-14.3-79.99,3.42,2.91,6.39,4.46,10.16,5.68,2.98,34.22,9.49,63.72,22.36,94.81l.51-14.18c.41-11.56,4.88-21.98,13.11-30.1,4.08-4.02,8.35-7.32,13-10.81,3.11-2.33,7-4.74,8.76-8.33,4.8-9.81,10.05-18.79,18.03-26.21,10-9.31,21.39-15.91,34.69-19.34,5.36-1.38,10.5-2.75,15.66-4.84,3.34-1.36,6.21-3.79,8.92-6.07l7.37-6.2c7.41-6.23,19.9-7.42,18.97-5.11-.17.43-.6,1.25-.96,1.77-5.8,8.45-9.43,17.83-11.92,27.78-2.83,11.33-10.39,25.85-19.02,33.92-13.03,12.19-25.65,18.44-42.65,23.76-4.97,1.56-6.08,6.28-12.74,11.42-7.12,5.5-15.17,8.02-23.77,10.29-6.98,1.84-13.68,5.81-16.85,12.51-3.48,7.35-5.14,16.09-4.04,24.22.71,5.28,5.39,8.89,7.54,13.74-1.86,2.38-3.5-.9-9.03.43-1.43.35-3.19-.2-3.92-1.44l-5.46-9.29c-2.4-4.08-23.8-10.73-29.52-12.23-16.02-4.19-31.47-8.85-46.98-14.52-8.3-3.03-15.54-7.1-23.43-11.02-23.58-11.73-41.13-24.02-57.95-44.48-5.7-6.93-9.44-14.55-13.24-22.51-1.9-3.97-11.92-25.34-6.98-28.23l5.12,5.5c2.17,2.34,4.55,4.88,7.57,6.59ZM243.14,324.72c7.76-12.15,19.48-14.67,30.18-22.09,3.06-2.12,5.42-5.33,7.44-8.5,10.5-16.51,22.21-22.8,39.2-31.67,9.9-5.17,18.22-12.03,25.9-20.09-.6-1.24-1.8-2.39-3.03-2.74-6.42,6.56-17.37,14.96-25.25,19.1l-18.34,9.64c-8.44,4.44-14.47,11.26-19.42,19.3-7.68,12.46-10.73,13.52-23.41,19.72-5.92,2.89-10.97,6.55-14.79,11.94-.67.94-2.86,3.98-2.86,3.98l4.38,1.42ZM190.01,345.08l2.53-3.1c-7.12-8.17-19.66-13.77-29.88-17.06l-17.48-5.62c-6.86-2.21-12.19-6.49-16.75-11.91-5.41-6.43-11.84-10.87-19.35-14.54l-6.88-3.36c-3.88-1.9-7.66-3.5-11.12-6.17-8.17-6.31-15.25-13.09-22.46-20.51l-3.06,2.62c7.08,7.82,19.93,20.15,28.55,24.96,7.25,4.04,14.79,6.93,21.39,12.05,3.09,2.4,6.27,4.97,8.92,7.83,5.3,5.73,10.93,10.15,18.41,12.82l23.8,8.5c4.46,1.59,8.64,3.87,12.75,6.15,3.84,2.14,6.95,4.98,10.62,7.33Z"/><path class="cls-1" d="M276.94,183.96l-43.78-18.83c2.85-5.1-.24-8.57-.24-8.57,0,0,.63-.79.62-3.18,0-1.8-.79-2.96-.79-2.96,13.07-6.25,8.15-9.49,8.15-9.49,4.46-4.81,2.71-9.05-.76-10-1.43-.39-3.99-.18-3.99-.18-2.49-3.54-6.43-1.34-11.43,1.82,0,0-.77-2.6-4.73-3.18,0,0-.5-3.31-3.02-4.17l15.21-27.87,10.79-19.98c2.35-4.34,5.96-8.13,11.09-8.96,10.1-1.63,15.75,6.27,19.49,14.92,0,0,6.67,2.15,9.92,5.9,3.28,3.79,7.07,8.98,6.14,17.25,0,0,.99.78,3.2,2.6,7.43,6.11,11.96,15.07,11.15,24.93-.38,4.63-2.09,8.96-3.47,13.38,0,0,2.94,3.75,3.61,5.18,3.16,6.78.69,14.18-3.35,18.81,0,0,.56,9.35-3.97,13.92-4.88,4.93-13.05,1.57-19.83-1.35Z"/><path class="cls-1" d="M170.86,256.11c-5.56,3.17-11.2,5.31-16.79,2.54-2.4-1.19-4.14-3.19-5.29-5.64-3.19,2.13-5.64,3.03-11.9,2.65-12.7-.77-27.56-11.9-26.96-25.1,0,0-1.11-.49-3.53-1.39-7.23-2.67-11.84-10.32-9.71-17.93.34-1.21,1.2-2.7,1.81-4.05-7.24-5.98-6.92-20.8,1.85-25.77,3.52-2,7.69-2.67,11.78-3.38l49.19-8.54c.22,2.63,1.02,4.12,2.47,5.87-4.02,5.08-5.5,11.86-3.09,17.86,1.15,2.85,6.25,2.95,9.01,1.54,0,0,4.39,2.05,7.57-.91l5.42-5.04c2.01,2.08,4.5,3.12,8,2.26l.21,44.73c.04,8.64-1.28,20.94-12,22.23-2.58.31-5.21-.16-8.04-1.94Z"/><path class="cls-1" d="M160.1,164.9l-26.58,4.08c-10.5,1.83-20.54,3.67-31.17,4.81-2.7.29-5.95-.25-8.45-1.11-5.8-1.99-9.98-10.58-6.75-16.47-7.4-6.51-4.78-14.46-.11-21.41-2.97-2.06-4.93-4.99-5.73-8.48-3.01-13.2,7.57-24.55,19.44-27.8.4-5.83,3.71-9.13,9.78-10.92,1.68-.5,6.94-1.05,6.94-1.05,2.34-7.34,10.57-12.14,17.76-8.73,3.39,1.61,5.67,5.06,7.79,8.06l20.71,29.35,8.36,10.89s-.83.5-1.45,1.56c-.79,1.35-.52,2.79-.52,2.79-.03.06-3.09,1.51-3.4,4.17-3.86-4.02-8.92-4.67-13.01-1.16-1.98-.84-6.3-.13-7.4,2.27-1.83,3.99,2.19,8.08,3.8,11.17,0,0-1.91,4.47,10.08,7.98-.53,1.26-.88,3.47.2,5.23,0,0-1.4,2.33-.3,4.78Z"/><path class="cls-1" d="M195.1,102.76c-6.39-.79-7.38,5.36-7.38,5.36-1.86.68-3.26,2.59-3.27,4.83,0,1.86.32,7.42.32,7.42,0,0-1.21.04-2.23.62-1.38.79-1.86,1.58-1.86,1.58,0,0-1.16-.18-2.39.01-1.34.21-2.3.85-2.3.85-11.46-15.24-22.4-30.98-32.62-47.03-1.91-2.99-2.94-6.38-2.99-9.73-.09-6.7,4.5-11.88,11.1-11.37,2.17.17,3.74.66,3.74.66,4.06-7.43,9.05-9.6,15.82-8.68,0,0,2.67-4.09,8.85-6.2,7.67-2.63,12.15-2.21,18.11.09,7.52,2.9,10.96,7.04,10.96,7.04,3.96-1.53,8.5-1.79,13.14,2.05,2.66,2.2,4.16,5.18,4.16,5.18,4.35-1.91,10.02-.29,13.13,3.44,2.57,3.08,3.27,7.24,1.23,11.13l-19.66,37.49-7.85,14.98c-1.84-1.94-4.26-2.33-6.02-2.29-.57-3.32-1.14-7.12-2.53-10.29-1.09-2.47-3.29-3.75-5.31-3.44,0,0-1.24-3.35-4.15-3.71Z"/><path class="cls-1" d="M212.81,250.06c-5.67,2.53-11.84.6-14.57-5.17-1.39-2.94-1.95-6.76-1.96-10.25l-.14-43.39s4.65,1.02,8.92-.89c11.15,13.15,16.24,7.59,16.24,7.59,3.13,1.43,7.87,1.7,9.04-2.58.5-1.82-1.02-4.63-1.02-4.63.68-2,1.39-4.54.16-6.51l-4.31-7.94c3.53-1.34,4.18-2.53,4.75-6.41l18.17,6.9c9.45,3.97,30.64,13.76,38.67,19.05,2.04,1.34,3.08,3.62,2.68,6.12-.49,3.07-2.73,5.39-5.14,7.29-.14,8.6-1.39,17.04-11.36,18.61-1.86,11.9-9.17,21.32-20.35,25.87-4.74,1.92-10.29.89-15.32-.02-8,5.26-18.84,5.07-24.48-3.61Z"/><path class="cls-1" d="M203.31,185.91s-4.16,5.11-9.79.6c-1.34.45-3.19,1.04-5.86.15s-3.34-3.35-3.34-3.35c-3.23,1.43-6.49.41-7.89-2.52-1.18-.23-3.18-.35-4.19-1.53-1.53-1.79-1.49-3.75-1.49-3.75,0,0-2.54-.91-3.63-3.24-1.34-2.85-.25-5.28-.25-5.28-3.53-2.86-.94-7.42-.94-7.42-2.13-2.08-2.14-5.01.64-7.38,0,0-1.21-1.68-.9-3.71.29-1.88,2.09-3.22,2.09-3.22-1.6-4.65,3.15-5.95,3.15-5.95-.71-5.04,4.64-6.46,4.64-6.46.37-2.75,2.49-5.84,6.76-5.39,1.49-3.91,6.17-3.62,8.14-2.18,3.46-4.08,7.38-.37,7.38-.37,3.82-3.23,7.96,2.05,7.96,2.05,6.12-.54,6.56,4.31,6.56,4.31,3.98-.51,4.41,3.91,4.41,3.91,0,0,5.48.25,4.78,5.29,0,0,4.73.48,3.47,5.77,0,0,4.15,2.41,2.31,5.9,0,0,2.71,2.89.61,6.62.59,1.07,1.19,2.62.82,4.36-.46,2.19-1.55,2.4-2.69,3.29.48,3.9-.49,5.76-4.03,6.65,0,0,.02,4.9-4.88,5.13,0,0-.76,2.41-1.47,3.52-.92,1.44-3.51,2.42-5.57,1.98,0,0-1.67,3.96-6.81,2.17ZM195.32,174.15s.78,1.35,3.12,1.11c1.05-.11,2.33-1.53,2.33-1.53,0,0,1.71,1.29,4.02,0,1.49-.83,1.38-3.02,1.38-3.02.93.51,2.49.87,3.74-.33,1.7-1.63.84-3.73.79-4.35,0,0,2.18-.05,2.75-1.45.91-2.19-.29-3.74-.29-3.74.4-.22,1.66-.74,1.94-2.18.42-2.18-.36-3.32-1.59-3.9,1.04-.81,1.17-2.28.77-3.47-.46-1.37-.92-1.87-2.35-2.42.48-.69.81-1.69-.23-2.91-.62-.72-2.2-1.02-3.26-.93.34-1.38.4-2.26-.5-3.18-.98-1-2.94-.78-2.94-.78,0,0,.02-2.18-1.47-2.73s-2.7-.18-2.7-.18c0,0-.49-1.83-2.18-1.93-1.5-.09-2.05.73-2.77,1.31,0,0-1.14-1.7-2.84-1.35-1.46.3-2.34,1.72-2.34,1.72-1.15-.56-2.22-.56-3.47.36-.76.56-1.06,1.86-1.06,1.86,0,0-1.36-.17-2.46.93-.85.86-.8,1.89-.48,2.77,0,0-1.73-.38-2.78,1.03-.92,1.25-.29,3.02-.29,3.02h0c-2.26.59-3.42,3.09-2.41,5.19l.08.18c-.9.42-1.57,1.61-1.66,2.33-.17,1.33.3,2.45,1.95,3.67,0,0-1.8,1.44-.59,3.58.62,1.1,2.12,1.61,2.12,1.61,0,0-.7,2.13.6,3.19,1.03.84,2.66.46,2.66.46-.01.58.03,1.84,1.15,2.88.79.74,2.26.59,2.26.59,0,0,.05,1.54,1.21,2.02,1.29.53,2.73-.15,2.73-.15.66.97,1.2,1.59,2.32,1.69,1.5.14,2.73-.95,2.73-.95Z"/><path class="cls-1" d="M201.14,161.05c-2.36,2.56-4.72.99-4.72.99-3.43,3.68-7.34-.75-6.15-3.21,0,0-3.03-.83-3.04-3.2-.02-2.59,1.78-3.14,3.29-3.33.3-1.37.63-2.89,1.83-3.53,2.74-1.46,5.08,1.81,5.08,1.81,3.39-1.04,5.03,1.44,5.03,3.44,0,1.29-.39,1.88-1.04,2.92.23.86.81,2.94-.28,4.12Z"/></svg>