<?xml version="1.0" encoding="UTF-8"?><svg id="Layer_1" xmlns="http://www.w3.org/2000/svg" viewBox="0 0 460.43 419.64"><defs><style>.cls-1{fill:#847132;}</style></defs><path class="cls-1" d="M206.99,146.46l-4.1,5.92c-2.02,2.93-6.89,5.05-10.44,4.05-3.95-1.12-5.7-8.24-8.42-5.01-2.93,3.48-6.89,4.68-11.18,4.96.96,2.5,1.53,4.64.71,6.67-2.13,5.23-10.14,4.47-15.04,1.4l-6.91,4.59c-1.94,1.29-5.12,2.51-7.3,1.66-3.38-1.31-4.59-4.61-5.64-8.08-3.76,2.63-7.99,3.66-12.66,2.54,2.12,20.78-7.53,13.6-7.47,18.84.13,10.43-10.93,16.46-15.2,13.54-4.41-3.02-1.56-7.57.4-11.14-1.87.62-4,1.52-5.78,1.67-4.36.37-6.85-2.3-7.75-6.63l-6.62,5.96c-3.63,3.27-8.34,3.78-12.82,1.04-2.17,4.07-5.48,7.37-10.15,7.63-5.51.31-9.42-3.65-9.28-9.55-3.89.93-11.04,6.41-14.44-.79-1.96-4.14-1.15-9.05,2.12-12.29l4.06-.61c-2.73-2.22-5.63-4.21-6.97-7.53-1.06-2.62.26-5.04,1.88-7.12,1.78-2.27,5.12-4.77,7.97-2.52,1.74,1.37,4.35,5.21,6.92,3.21,1.62-1.26-.77-3.94-2.09-4.77-2.4-1.5-4.21-4.18-3-6.88,2.25-5.03,8.5-6.81,13.58-3.79,2.9-5.1,9.01-6.17,13.66-2.72,1.63,1.21,3.15,3,4.78,4.67,4.12-2.61,8.5-4.02,13.08-2.49l-3.34-4.24c-1.15-1.46-.83-3.82.51-4.96l4.87-4.15c-9.29-1.11-12.39.71-21.63-3.88-3.13-1.55-4.16-4.82-2.9-7.89-2.07-1.76-4.06-3.79-5.19-6.2-1.34-2.87.03-5.44,1.97-7.37,6.06-6.02,9.87,1.6,16.21,2.6.73-4.65,3.98-7.12,8.07-8.08,3.16-10.15,12.62-7.43,14.47-7.78,3.85-.73,7.34-3.05,10.92,1.12,4.03,4.7,6.24,9.86,5.48,16.66,4.11-1.98,7.84-2.99,12.03-2.57-1.83-3.62-3.09-8.43.23-11.32,3.1-2.7,8.43-1.48,11.5,1.07l4.09-4.4c-4.08-1.65-6.69-2.76-7.06-7.44-3.39.91-7.31.63-9.95-2.15-1.67-1.77-2.76-5.12-1.62-7.47,1.25-2.57,4.02-4.19,6.27-5.68l-1.01-3.61c-.59-2.1.4-4.75,1.71-6.01,1.72-1.66,4.5-2.4,6.77-1.28,3,1.48,4.89,4.27,6.47,7.29l5.92-1.48c-1.61-3.18-3.27-6.65-1.12-9.69,1.29-1.83,4.91-1.71,6.31-3.23,1.24-1.35,1.51-4.18,2.93-4.98,2.12-1.2,4.65-2.33,6.66-.99,2.66,1.78,3.13,4.81,4,8.14,5.98-2.44,4.81-13.76,16.19-9.91,3.99-5.19,8.52-10.64,15.67-6.73,1.83,1,9.54-2.62,11.24,4.9l1.42,6.28c2.67-1.51,5.12-3.36,7.81-4,3.36-.8,5.87,2.12,7.25,5.08,3.83-2.68,7.99-6.15,13.71-4.91,4.6.99,6.03,6.1,4.65,10.42,4.31.97,15.71,2.93,16.51,8.45l.74,5.08c5.18-1.27,13.58-2.5,16.16,1.97,2.56,4.43-5.15,10.19-8.18,12.53l6.08,2.88c1.19.57,2.44,2.61,2.71,3.8.95,4.14-4.38,7.72-9.45,7.38-.27.48-.65,1.94-.78,2.7,3.39.43,5.41,1.93,7.53,4.57,3.84-3.13,6.91-6.89,11.43-8.68,2.84-1.12,6.61.96,8.56,2.99,2.09,2.16,5.17,2.81,7.23.6-1.37-1-3.69-2.41-4.01-3.77-1.14-4.79,2.71-8.83,7.24-9.31s8.45,1.47,12.24,4.37c.39-3.22,1.92-6.01,4.18-7.35,2.9-1.73,6.19-1.38,9.11.31s4.49,4.66,5.41,7.95c.98,3.49,3.54.8,8.98,3.21,2.96,1.31,3.82,4.15,2.96,7.22-1.05,3.76,3.17,5.13,1.4,9.03s-7.5,3.81-11.06,4c.29,4.49-2.22,7.3-5.14,10.76,6.18-1.49,11.95-.88,18.01.6.03-2.4.08-5.52,2.23-7.03,3.95-2.79,7.52,2.11,11.56.7s7.51.06,9.73,3.34l3.99,5.87c3.16.64,6.27,1.72,8.19,4.44,1.36,1.92,1.61,4.43.54,6.71-.75,1.59-3.15,3.16-5.42,4.2,1.41,3.1,1.68,6.19-.19,9.16-1.84,2.93-4.17,4.4-8.24,3.72l2.44,5.03c4.84.45,9.38,2.02,11.91,6.26,1.93,3.24,1.08,7.04-.97,9.79s-5.87,4.1-9.47,3.28c-4.37-.99-7.26-4.13-9.86-7.74-6.77,2.4-11.41,3.59-16.81-2.37-2.5-.27-5.5,2.23-5.42,5.2,5.24.81,9.73,3.6,12.18,8.66.91,1.87-.11,6.75-2.83,7.03l-12.23-1.69c-1.94-5.61-4.28-11.08-8.6-15.22s-10.96-5.53-15.98-2.53c-2.39,1.43-4.41,2.54-7.29.97,1.16-7.2-2.96-13.43-9.62-15.9-9.16-3.41-16.38.67-22.49,7.4-4.91-2.87-10.68-1.39-13.5,3.99-4.16-2.22-8.49-2.37-12.87-2.22-5.09-4.6-1.05-9.76-.37-14.26-2.12.18-3.48.31-5.54.6-4.6.65-9.95-1.43-10.96-6.5-.31-1.56-.4-3.52-.63-5.14-4.35.74-7.95-.32-11.36-2.27-5.08,5.22-8.81,1.79-14.27-.27.06,3.9-.22,7.54-2.17,10.66-1.62,2.59-4.72,3.51-7.34,1.52-1.31-.99-2.36-2.53-3.66-4.26Z"/><path class="cls-1" d="M160.96,253.73c.93,7.76-3.45,16.99-12.49,16.59,4.47,10.12-1.19,15.98-8.88,20.72,1.31,4.49.52,9.44-2.57,12.89-7.05,7.86-17.69,3.53-26.7-.06l-5.89,3.59c-4.72,2.87-10.97,4.2-15.97,1.12-3.43-2.12-5-6.06-6.22-9.88l-4.05,4.84c-4.39,5.25-12.99,7.18-16.24,3.04-.88-1.12-1.36-3.69-.62-4.98l2.4-4.25-6.39-1.19c-2.61-.49-5.72-3.4-5.68-6.3.06-3.97,2.97-7.54,6.22-9.38l6.07-3.45-2.98-2.91c-2.57-2.5-3.19-6.07-1.31-9.37s5.1-6,8.46-8.57l-5.35-3.65c-2.08,2.12-3.93,4.14-6.27,5.89-3.87,2.89-9.74,3.06-13.21-.53-2.26-2.34-2.37-6.73-.45-9.23,1.31-1.7,2.97-2.94,4.75-4.36-3.41-3.89-3.31-9.43.09-13.45,2.43-2.88,6.31-4.81,10.22-5.13l7.67-.63c2.77-4.99,6.89-9,12.7-10.16,10.19-2.03,14.3.69,21.43,8.16,5.44-3.9,12.02-6.24,18.81-4.66,2.65.62,5.34,2.61,7.99,4.04,4.18-6.69,14.52-9.88,21.86-11.84-.72-9.2,3.98-14.75,12.53-16.4-.49-4.05,1.31-7.71,5.08-8.8,1.85-.53,4.25.24,5.55,1.6l4.42,4.58c3.42-2.84,6.25-4.35,10.24-3.72,6.72,1.06,10.24,6.49,10.92,13.23,5.61-2.49,11.49-1.65,17.36-1.47,3.44-1.86,7.86-3.7,11.66-4.98,1.96-6.89,5.78-8.93,12.96-10.22.64-5.26,4.35-8.49,9.31-9.71,4.15-1.02,7.33.96,11,1.98,2.96-.71,6.11-3.66,9.99-2.54,2.79.8,5.93,2.73,7.85,6.26,1.12-2.65,2.37-5.42,4.95-6.97,2.8-1.69,6.37-.87,9.31-.41,1.97-2.52,3.71-5.45,6.52-7.3,5.35-3.53,13.78-1.54,15.92,4.88,1.6,4.8-1.77,9.62-3.54,14.02,5.98-.17,6.63-3,13.66.02,3.09-3.49,7.64-6.07,12.51-4.82,6.65,1.71,8.88,10.77,8.59,16.98,14.07-2.55,29,1.95,31.42,17.57,6.96-1.09,11.45-8.07,17.32-6.46,2.42.66,4.18,2.67,5.27,5.24l1.98,4.67,7.01-1.75c2.53-.63,5.85.46,7.09,2.83,1.83,3.51.91,7.58-1.56,10.78,2.44,1.09,5.39,1.95,6.68,4.26,1.44,2.57.63,6.46-1.58,8.36-1.6,1.38-4.68.92-6.69,1.02-.64,2.01-1.58,4.32-3.09,5.97-1.74,1.9-4.21,2.41-6.12.45l-3.74-3.82c.16,4.8-2.63,7.48-7.07,8.63,2.36,6.44,11.45,5.21,12.49,10.91,1.45,7.9-9.88,10.91-16.14,10.94.56,3.3.14,6.03-1.9,8.25-1.65,1.8-4.74,3.81-7.63,2.79l-5.24-1.86c-1.3,3.99-4.58,5.85-8.47,5.25-4.39-.68-8.07-2.6-10.63-6.73-2.37,3.3-5.41,4.27-8.92,4.42s-6.47-1.85-9.31-4.94c-6.77,3.78-15.36,2.7-20.21-3.57-2.33-3.01-2.04-7.26-2.13-11.14-2.47-.74-5.24-1.62-7.45-3.05-3.23-2.08-3.96-5.67-2.76-9.49-9.93-2.4-9.34-10.57-10.44-12.07-.24-.32-9.01,3.07-12.17-3.7-2.5-5.35,1.42-8.91,2.77-12.8-3.51,1.15-5.91,3.56-8.31,6.5-7.21,8.81-14.5,5.39-22.81.47-5.59,6.09-13.87,6.08-19.64-.03l-4.3,4.29c-4.06,4.05-9.62,3.64-14.36.1-.69,4.36-1.13,8.27-2.53,11.95-2.06,5.41-7.59,8.4-13.12,7.4-3.98-.72-5.48-4.55-6.29-7.83-9.16,1.31-14.04-1.35-20.25-8.07-2.34,5.15-6.02,9.44-11.34,11.18Z"/><path class="cls-1" d="M268.48,387.07c-8.3,2.86-13.92-3.64-21.64-3.37l-.78,2.03c-.19.5-1.71.56-2.25.34-8.78-3.47-9.28-7.45-22.36-11.68-1.6-.52-3.57-.07-4.91.76-4.5,2.78-9.11,4.63-14.1,6.2-2.71.85-4.67.15-7.37-.89-4.42-.47-6.7,2.63-12,1.64-11.45-2.14-6.82-1.79-19.42.29.24-1.19.88-2.54,1.75-3.2,8.71-6.59,17.53-5.69,19.91-7.44,3.92-2.88,7.57-5.37,10.97-8.78,1.7-1.91,2.07-6.15,2.5-8.75,2.7-16.08,10.93-21.53,9.89-24.4-3.81-10.51-8.22-13.45-6.39-24.16-.64-1.8-2.38-4.35-3.73-5.86l-7.17-8.02c-5.48-.56-10.15,1.59-13.96,5.28-4.14,4.01-10.16,4.47-14.27.27-5.47-5.58-8.61-4.47-16.3-4.38l4.31-4.07c2.22-2.1,3.53-4.35,4.95-7.61l8.1,3.33c3.75,1.54,6.52.02,8.72-2.96,1.58-2.14,3.85-3.67,6.3-5.56-2.12-3.32-4.44-6.58-6.82-9.93l-5.09-7.16c3.09-2.49,5.03-4.67,7.15-7.7,6.25,5.89,11.02,12.23,15.64,19.17,2.18,3.29,5.39,6.79,9,8.2l13.56,5.3c-.87-5.01-2.12-9.32-3.82-13.75l-2.67-6.95c3.92-1.93,6.21-3.51,8.49-7.32l4.7,6.62,6.56-8.4c1.42-1.82.04-5.39-.25-7.47,2.82-1.34,5.61-3.01,8.2-4.91l5.58,3.03,1.57,7.7c-2.38,5.53-9.82,11.82-10.49,17.05-.48,3.75-.07,7.57,1.59,10.99.55,1.12,3.08.08,4.05-.35,7.2-3.22,13.75-7.3,18.63-13.46-2.21-8.71-4.04-16.33-.74-24.6l9.63,3.5c.26,5.56.28,13.41,5.53,16.5,9.89-4.07,13.88.49,22.48-6.97,0,0,1.95,2.65,2.6,3.33.72.75,2.86,2.36,2.86,2.36,0,0,.81,4.5,2.42,7.11-1.8.97-3.5,1.57-5.34,2.08l-10.21,2.8c-8.15,2.23-15.98,5.31-21.63,11.65-3.42,3.84-5.23,8.72-3.59,13.75,11.92-2.86,11.77-8.16,22.36-13.13,5.65-2.66,10.88,1.06,13.93-2.24,3.47-3.77,7.89-6.35,13.03-6.89,1.2,3.19,2.74,5.94,4.71,8.61-7.91,5.56-8.85,10.94-17.72,15.28-2.39,1.17-4.94.98-7.41.21-2.89-.91-6.03.06-7.62,2.8-4.65,8.03-11.29,14.61-19.98,18.24-2.06.86-1.99,2.4-1.86,4.28l1.33,18.57c.25,3.44,1.43,7.43,2.44,10.67,6.56,5.84,7.66,4.3,10.6,13.46l8.94,5.73c3.04,1.95,5.63,4.67,8.78,6.48,3.16,1.82,7.12,2.24,9.26,6.04l-21.26-4.21c-11.77-2.33-14.31-8.74-22.47-7.23l6,8.16c2.38.99,4.14,1.51,6.63,4.01Z"/><path class="cls-1" d="M190.23,182.84c-11.12-4.48-18.56.71-27.86-11.07,3.31-.24,5.95-.48,8.92-1.38,4.78-1.46,3.7,3.25,11.4,3.46l6.91.19c.24-1.81-.42-5.1-2.37-6.31l-9.21-5.75c3.69-1.33,6.31-2.31,9.2-4.1l8.43,5.59c4.9,3.25.6,5.53,7.95,13.58,1.89,2.07,14.06,15.52,11.52,17.46l-13.36.07c-3.11-4.23-6.3-9.62-11.53-11.73Z"/><path class="cls-1" d="M221.92,162.28l-2.92-6.97c-.23-1.11,1.48-3.12,2.52-3.86l5.68,6.56,2.86-12.22,8.58.32,2.7-.72c-.39,3.34-1.13,6.5-1.06,9.72l.4,17.48c-3.06,1.66-4.49,4.68-5.97,7.66l-6.05,2.86c-1.89-6.99-3.86-13.94-6.74-20.82Z"/><path class="cls-1" d="M143.48,207.3l-7.62,2.67c-4.1-7.36-6.4-12.56-14.06-16.77l1.39-8.82c2.11.35,4.09.91,6.3,1.67,2.84-4.51,2.7-9.58,1.45-15.2l6.11-.69c2.86,9.01,3.31,8.78.37,17.86,2.22,3.73,5.15,7.14,8.05,10.49-1.02,2.82-1.68,4.9-1.97,8.8Z"/></svg>